<svg width="104" height="119" viewBox="0 0 104 119" fill="none" xmlns="http://www.w3.org/2000/svg">
<path d="M0 22.2857C0 18.1768 3.31964 14.8571 7.42857 14.8571H96.5714C100.68 14.8571 104 18.1768 104 22.2857C104 26.3946 100.68 29.7143 96.5714 29.7143H7.42857C3.31964 29.7143 0 26.3946 0 22.2857ZM0 59.4285C0 55.3196 3.31964 52 7.42857 52H96.5714C100.68 52 104 55.3196 104 59.4285C104 63.5375 100.68 66.8571 96.5714 66.8571H7.42857C3.31964 66.8571 0 63.5375 0 59.4285ZM104 96.5714C104 100.68 100.68 104 96.5714 104H7.42857C3.31964 104 0 100.68 0 96.5714C0 92.4625 3.31964 89.1428 7.42857 89.1428H96.5714C100.68 89.1428 104 92.4625 104 96.5714Z" fill="#1E3050"/>
</svg>
