<svg width="205" height="205" viewBox="0 0 205 205" fill="none" xmlns="http://www.w3.org/2000/svg">
<path d="M70.4688 166.562V192.188M32.0312 12.8125H108.906C112.304 12.8125 115.563 14.1624 117.966 16.5652C120.369 18.968 121.719 22.2269 121.719 25.625V190.586C121.719 191.011 121.55 191.418 121.25 191.718C120.949 192.019 120.542 192.188 120.117 192.188H19.2188V25.625C19.2188 22.2269 20.5686 18.968 22.9714 16.5652C25.3743 14.1624 28.6332 12.8125 32.0312 12.8125ZM128.125 76.875H172.969C176.367 76.875 179.626 78.2249 182.029 80.6277C184.431 83.0305 185.781 86.2894 185.781 89.6875V192.188H121.719V83.2812C121.719 81.5822 122.394 79.9528 123.595 78.7513C124.796 77.5499 126.426 76.875 128.125 76.875Z" stroke="black" stroke-width="12.8125" stroke-linecap="round" stroke-linejoin="round"/>
<path d="M39.2702 172.917C37.9434 173.09 36.5956 172.844 35.416 172.212C34.2363 171.581 33.284 170.596 32.6927 169.395C32.1014 168.195 31.9007 166.84 32.119 165.52C32.3372 164.199 32.9634 162.981 33.9096 162.035C34.8557 161.088 36.0744 160.462 37.3946 160.244C38.7147 160.026 40.0701 160.226 41.2704 160.818C42.4708 161.409 43.4558 162.361 44.0873 163.541C44.7189 164.721 44.9651 166.068 44.7916 167.395C44.6085 168.795 43.9679 170.096 42.9694 171.094C41.9709 172.093 40.6704 172.734 39.2702 172.917ZM39.2702 140.885C37.9434 141.059 36.5956 140.813 35.416 140.181C34.2363 139.55 33.284 138.565 32.6927 137.364C32.1014 136.164 31.9007 134.809 32.119 133.488C32.3372 132.168 32.9634 130.95 33.9096 130.003C34.8557 129.057 36.0744 128.431 37.3946 128.213C38.7147 127.995 40.0701 128.195 41.2704 128.786C42.4708 129.378 43.4558 130.33 44.0873 131.51C44.7189 132.689 44.9651 134.037 44.7916 135.364C44.6085 136.764 43.9679 138.065 42.9694 139.063C41.9709 140.062 40.6704 140.702 39.2702 140.885ZM39.2702 108.854C37.9434 109.028 36.5956 108.781 35.416 108.15C34.2363 107.518 33.284 106.533 32.6927 105.333C32.1014 104.133 31.9007 102.777 32.119 101.457C32.3372 100.137 32.9634 98.9183 33.9096 97.9721C34.8557 97.026 36.0744 96.3998 37.3946 96.1816C38.7147 95.9633 40.0701 96.1639 41.2704 96.7552C42.4708 97.3465 43.4558 98.2988 44.0873 99.4785C44.7189 100.658 44.9651 102.006 44.7916 103.333C44.6085 104.733 43.9679 106.033 42.9694 107.032C41.9709 108.03 40.6704 108.671 39.2702 108.854ZM39.2702 76.8229C37.9434 76.9964 36.5956 76.7502 35.416 76.1186C34.2363 75.4871 33.284 74.5021 32.6927 73.3017C32.1014 72.1014 31.9007 70.746 32.119 69.4259C32.3372 68.1057 32.9634 66.887 33.9096 65.9409C34.8557 64.9947 36.0744 64.3686 37.3946 64.1503C38.7147 63.9321 40.0701 64.1327 41.2704 64.724C42.4708 65.3153 43.4558 66.2676 44.0873 67.4473C44.7189 68.6269 44.9651 69.9748 44.7916 71.3015C44.6085 72.7017 43.9679 74.0022 42.9694 75.0007C41.9709 75.9992 40.6704 76.6398 39.2702 76.8229ZM39.2702 44.7917C37.9434 44.9652 36.5956 44.7189 35.416 44.0874C34.2363 43.4559 33.284 42.4708 32.6927 41.2705C32.1014 40.0701 31.9007 38.7148 32.119 37.3946C32.3372 36.0745 32.9634 34.8558 33.9096 33.9096C34.8557 32.9635 36.0744 32.3373 37.3946 32.1191C38.7147 31.9008 40.0701 32.1014 41.2704 32.6927C42.4708 33.284 43.4558 34.2363 44.0873 35.416C44.7189 36.5957 44.9651 37.9435 44.7916 39.2703C44.6085 40.6705 43.9679 41.9709 42.9694 42.9694C41.9709 43.9679 40.6704 44.6086 39.2702 44.7917ZM71.3015 140.885C69.9747 141.059 68.6269 140.813 67.4472 140.181C66.2675 139.55 65.3152 138.565 64.7239 137.364C64.1326 136.164 63.932 134.809 64.1503 133.488C64.3685 132.168 64.9946 130.95 65.9408 130.003C66.887 129.057 68.1057 128.431 69.4258 128.213C70.746 127.995 72.1013 128.195 73.3017 128.786C74.502 129.378 75.4871 130.33 76.1186 131.51C76.7501 132.689 76.9964 134.037 76.8229 135.364C76.6397 136.764 75.9991 138.065 75.0006 139.063C74.0021 140.062 72.7017 140.702 71.3015 140.885ZM71.3015 108.854C69.9747 109.028 68.6269 108.781 67.4472 108.15C66.2675 107.518 65.3152 106.533 64.7239 105.333C64.1326 104.133 63.932 102.777 64.1503 101.457C64.3685 100.137 64.9946 98.9183 65.9408 97.9721C66.887 97.026 68.1057 96.3998 69.4258 96.1816C70.746 95.9633 72.1013 96.1639 73.3017 96.7552C74.502 97.3465 75.4871 98.2988 76.1186 99.4785C76.7501 100.658 76.9964 102.006 76.8229 103.333C76.6397 104.733 75.9991 106.033 75.0006 107.032C74.0021 108.03 72.7017 108.671 71.3015 108.854ZM71.3015 76.8229C69.9747 76.9964 68.6269 76.7502 67.4472 76.1186C66.2675 75.4871 65.3152 74.5021 64.7239 73.3017C64.1326 72.1014 63.932 70.746 64.1503 69.4259C64.3685 68.1057 64.9946 66.887 65.9408 65.9409C66.887 64.9947 68.1057 64.3686 69.4258 64.1503C70.746 63.9321 72.1013 64.1327 73.3017 64.724C74.502 65.3153 75.4871 66.2676 76.1186 67.4473C76.7501 68.6269 76.9964 69.9748 76.8229 71.3015C76.6397 72.7017 75.9991 74.0022 75.0006 75.0007C74.0021 75.9992 72.7017 76.6398 71.3015 76.8229ZM71.3015 44.7917C69.9747 44.9652 68.6269 44.7189 67.4472 44.0874C66.2675 43.4559 65.3152 42.4708 64.7239 41.2705C64.1326 40.0701 63.932 38.7148 64.1503 37.3946C64.3685 36.0745 64.9946 34.8558 65.9408 33.9096C66.887 32.9635 68.1057 32.3373 69.4258 32.1191C70.746 31.9008 72.1013 32.1014 73.3017 32.6927C74.502 33.284 75.4871 34.2363 76.1186 35.416C76.7501 36.5957 76.9964 37.9435 76.8229 39.2703C76.6397 40.6705 75.9991 41.9709 75.0006 42.9694C74.0021 43.9679 72.7017 44.6086 71.3015 44.7917ZM103.333 172.917C102.006 173.09 100.658 172.844 99.4785 172.212C98.2988 171.581 97.3465 170.596 96.7552 169.395C96.1639 168.195 95.9633 166.84 96.1815 165.52C96.3997 164.199 97.0259 162.981 97.9721 162.035C98.9182 161.088 100.137 160.462 101.457 160.244C102.777 160.026 104.133 160.226 105.333 160.818C106.533 161.409 107.518 162.361 108.15 163.541C108.781 164.721 109.028 166.068 108.854 167.395C108.671 168.795 108.03 170.096 107.032 171.094C106.033 172.093 104.733 172.734 103.333 172.917ZM103.333 140.885C102.006 141.059 100.658 140.813 99.4785 140.181C98.2988 139.55 97.3465 138.565 96.7552 137.364C96.1639 136.164 95.9633 134.809 96.1815 133.488C96.3997 132.168 97.0259 130.95 97.9721 130.003C98.9182 129.057 100.137 128.431 101.457 128.213C102.777 127.995 104.133 128.195 105.333 128.786C106.533 129.378 107.518 130.33 108.15 131.51C108.781 132.689 109.028 134.037 108.854 135.364C108.671 136.764 108.03 138.065 107.032 139.063C106.033 140.062 104.733 140.702 103.333 140.885ZM103.333 108.854C102.006 109.028 100.658 108.781 99.4785 108.15C98.2988 107.518 97.3465 106.533 96.7552 105.333C96.1639 104.133 95.9633 102.777 96.1815 101.457C96.3997 100.137 97.0259 98.9183 97.9721 97.9721C98.9182 97.026 100.137 96.3998 101.457 96.1816C102.777 95.9633 104.133 96.1639 105.333 96.7552C106.533 97.3465 107.518 98.2988 108.15 99.4785C108.781 100.658 109.028 102.006 108.854 103.333C108.671 104.733 108.03 106.033 107.032 107.032C106.033 108.03 104.733 108.671 103.333 108.854Z" fill="black"/>
<path d="M107.038 75.0039C109.532 72.5099 109.522 68.4562 107.016 65.9497C104.509 63.4432 100.456 63.4331 97.9615 65.9271C95.4676 68.421 95.4777 72.4747 97.9842 74.9812C100.491 77.4877 104.544 77.4978 107.038 75.0039Z" fill="black"/>
<path d="M103.333 44.7917C102.006 44.9652 100.658 44.7189 99.4785 44.0874C98.2988 43.4559 97.3465 42.4708 96.7552 41.2705C96.1639 40.0701 95.9632 38.7148 96.1815 37.3946C96.3997 36.0745 97.0259 34.8558 97.9721 33.9096C98.9182 32.9635 100.137 32.3373 101.457 32.1191C102.777 31.9008 104.133 32.1014 105.333 32.6927C106.533 33.284 107.518 34.2363 108.15 35.416C108.781 36.5957 109.028 37.9435 108.854 39.2703C108.671 40.6705 108.03 41.9709 107.032 42.9694C106.033 43.9679 104.733 44.6086 103.333 44.7917ZM160.156 160.156C158.889 160.156 157.651 160.532 156.597 161.236C155.544 161.94 154.722 162.94 154.238 164.111C153.753 165.281 153.626 166.57 153.873 167.812C154.12 169.055 154.73 170.196 155.626 171.092C156.522 171.988 157.664 172.598 158.906 172.846C160.149 173.093 161.437 172.966 162.608 172.481C163.778 171.996 164.779 171.175 165.483 170.122C166.187 169.068 166.562 167.83 166.562 166.562C166.562 164.863 165.887 163.234 164.686 162.033C163.485 160.831 161.855 160.156 160.156 160.156ZM160.156 128.125C158.889 128.125 157.651 128.501 156.597 129.205C155.544 129.909 154.722 130.909 154.238 132.08C153.753 133.25 153.626 134.538 153.873 135.781C154.12 137.024 154.73 138.165 155.626 139.061C156.522 139.957 157.664 140.567 158.906 140.814C160.149 141.062 161.437 140.935 162.608 140.45C163.778 139.965 164.779 139.144 165.483 138.09C166.187 137.037 166.562 135.798 166.562 134.531C166.562 132.832 165.887 131.203 164.686 130.001C163.485 128.8 161.855 128.125 160.156 128.125ZM160.156 96.0937C158.889 96.0937 157.651 96.4694 156.597 97.1734C155.544 97.8773 154.722 98.8778 154.238 100.048C153.753 101.219 153.626 102.507 153.873 103.75C154.12 104.992 154.73 106.134 155.626 107.03C156.522 107.926 157.664 108.536 158.906 108.783C160.149 109.03 161.437 108.903 162.608 108.419C163.778 107.934 164.779 107.113 165.483 106.059C166.187 105.006 166.562 103.767 166.562 102.5C166.562 100.801 165.887 99.1715 164.686 97.9701C163.485 96.7687 161.855 96.0937 160.156 96.0937ZM134.531 160.156C133.264 160.156 132.026 160.532 130.972 161.236C129.919 161.94 129.097 162.94 128.613 164.111C128.128 165.281 128.001 166.57 128.248 167.812C128.495 169.055 129.105 170.196 130.001 171.092C130.897 171.988 132.039 172.598 133.281 172.846C134.524 173.093 135.812 172.966 136.983 172.481C138.153 171.996 139.154 171.175 139.858 170.122C140.562 169.068 140.937 167.83 140.937 166.562C140.937 164.863 140.262 163.234 139.061 162.033C137.86 160.831 136.23 160.156 134.531 160.156ZM134.531 128.125C133.264 128.125 132.026 128.501 130.972 129.205C129.919 129.909 129.097 130.909 128.613 132.08C128.128 133.25 128.001 134.538 128.248 135.781C128.495 137.024 129.105 138.165 130.001 139.061C130.897 139.957 132.039 140.567 133.281 140.814C134.524 141.062 135.812 140.935 136.983 140.45C138.153 139.965 139.154 139.144 139.858 138.09C140.562 137.037 140.937 135.798 140.937 134.531C140.937 132.832 140.262 131.203 139.061 130.001C137.86 128.8 136.23 128.125 134.531 128.125ZM134.531 96.0937C133.264 96.0937 132.026 96.4694 130.972 97.1734C129.919 97.8773 129.097 98.8778 128.613 100.048C128.128 101.219 128.001 102.507 128.248 103.75C128.495 104.992 129.105 106.134 130.001 107.03C130.897 107.926 132.039 108.536 133.281 108.783C134.524 109.03 135.812 108.903 136.983 108.419C138.153 107.934 139.154 107.113 139.858 106.059C140.562 105.006 140.937 103.767 140.937 102.5C140.937 100.801 140.262 99.1715 139.061 97.9701C137.86 96.7687 136.23 96.0937 134.531 96.0937Z" fill="black"/>
</svg>
