<svg width="206" height="196" viewBox="0 0 206 196" fill="none" xmlns="http://www.w3.org/2000/svg">
<path d="M167.375 30.625H38.625C27.959 30.625 19.3125 38.8518 19.3125 49V159.25C19.3125 169.398 27.959 177.625 38.625 177.625H167.375C178.041 177.625 186.688 169.398 186.688 159.25V49C186.688 38.8518 178.041 30.625 167.375 30.625Z" stroke="black" stroke-width="12.875" stroke-linejoin="round"/>
<path d="M119.094 98C124.427 98 128.75 93.8866 128.75 88.8125C128.75 83.7384 124.427 79.625 119.094 79.625C113.761 79.625 109.438 83.7384 109.438 88.8125C109.438 93.8866 113.761 98 119.094 98Z" fill="black"/>
<path d="M151.281 98C156.614 98 160.938 93.8866 160.938 88.8125C160.938 83.7384 156.614 79.625 151.281 79.625C145.948 79.625 141.625 83.7384 141.625 88.8125C141.625 93.8866 145.948 98 151.281 98Z" fill="black"/>
<path d="M119.094 128.625C124.427 128.625 128.75 124.512 128.75 119.438C128.75 114.363 124.427 110.25 119.094 110.25C113.761 110.25 109.438 114.363 109.438 119.438C109.438 124.512 113.761 128.625 119.094 128.625Z" fill="black"/>
<path d="M151.281 128.625C156.614 128.625 160.938 124.512 160.938 119.438C160.938 114.363 156.614 110.25 151.281 110.25C145.948 110.25 141.625 114.363 141.625 119.438C141.625 124.512 145.948 128.625 151.281 128.625Z" fill="black"/>
<path d="M54.7188 128.625C60.0517 128.625 64.375 124.512 64.375 119.438C64.375 114.363 60.0517 110.25 54.7188 110.25C49.3858 110.25 45.0625 114.363 45.0625 119.438C45.0625 124.512 49.3858 128.625 54.7188 128.625Z" fill="black"/>
<path d="M86.9062 128.625C92.2392 128.625 96.5625 124.512 96.5625 119.438C96.5625 114.363 92.2392 110.25 86.9062 110.25C81.5733 110.25 77.25 114.363 77.25 119.438C77.25 124.512 81.5733 128.625 86.9062 128.625Z" fill="black"/>
<path d="M54.7188 159.25C60.0517 159.25 64.375 155.137 64.375 150.062C64.375 144.988 60.0517 140.875 54.7188 140.875C49.3858 140.875 45.0625 144.988 45.0625 150.062C45.0625 155.137 49.3858 159.25 54.7188 159.25Z" fill="black"/>
<path d="M86.9062 159.25C92.2392 159.25 96.5625 155.137 96.5625 150.062C96.5625 144.988 92.2392 140.875 86.9062 140.875C81.5733 140.875 77.25 144.988 77.25 150.062C77.25 155.137 81.5733 159.25 86.9062 159.25Z" fill="black"/>
<path d="M119.094 159.25C124.427 159.25 128.75 155.137 128.75 150.062C128.75 144.988 124.427 140.875 119.094 140.875C113.761 140.875 109.438 144.988 109.438 150.062C109.438 155.137 113.761 159.25 119.094 159.25Z" fill="black"/>
<path d="M51.5 18.375V30.625M154.5 18.375V30.625" stroke="black" stroke-width="12.875" stroke-linecap="round" stroke-linejoin="round"/>
<path d="M186.688 61.25H19.3125" stroke="black" stroke-width="12.875" stroke-linejoin="round"/>
</svg>
