<svg width="134" height="134" viewBox="0 0 134 134" fill="none" xmlns="http://www.w3.org/2000/svg">
<g clip-path="url(#clip0_41_62)">
<path d="M67 0C84.7695 0 101.811 7.05891 114.376 19.6238C126.941 32.1888 134 49.2305 134 67C134 84.7695 126.941 101.811 114.376 114.376C101.811 126.941 84.7695 134 67 134C49.2305 134 32.1888 126.941 19.6238 114.376C7.05891 101.811 0 84.7695 0 67C0 49.2305 7.05891 32.1888 19.6238 19.6238C32.1888 7.05891 49.2305 0 67 0ZM60.7188 31.4062V67C60.7188 69.0938 61.7656 71.0566 63.5191 72.2344L88.6441 88.9844C91.523 90.9211 95.4227 90.1359 97.3594 87.2309C99.2961 84.3258 98.5109 80.4523 95.6059 78.5156L73.2812 63.65V31.4062C73.2812 27.9254 70.4809 25.125 67 25.125C63.5191 25.125 60.7188 27.9254 60.7188 31.4062Z" fill="#1E3050"/>
</g>
<defs>
<clipPath id="clip0_41_62">
<rect width="134" height="134" fill="white"/>
</clipPath>
</defs>
</svg>
