<svg width="74" height="74" viewBox="0 0 74 74" fill="none" xmlns="http://www.w3.org/2000/svg">
<path d="M64.6246 37C64.6246 21.6797 52.219 9.25 36.9284 9.25C21.6378 9.25 9.23218 21.6797 9.23218 37C9.23218 52.3203 21.6378 64.75 36.9284 64.75C52.219 64.75 64.6246 52.3203 64.6246 37Z" stroke="black" stroke-width="4.58915" stroke-miterlimit="10"/>
<path d="M50.5846 21.8141L33.6783 28.5897C32.5172 29.055 31.4626 29.7517 30.5783 30.6377C29.6941 31.5237 28.9987 32.5804 28.5343 33.7437L21.7718 50.6828C21.6879 50.8929 21.6674 51.1231 21.7127 51.3448C21.7581 51.5665 21.8675 51.77 22.0272 51.9301C22.1869 52.0901 22.39 52.1997 22.6113 52.2451C22.8326 52.2906 23.0623 52.27 23.2721 52.1859L40.1783 45.4103C41.3394 44.9451 42.3941 44.2483 43.2783 43.3624C44.1626 42.4764 44.858 41.4197 45.3223 40.2563L52.0848 23.3173C52.1687 23.1071 52.1893 22.8769 52.1439 22.6552C52.0985 22.4335 51.9892 22.23 51.8294 22.07C51.6697 21.9099 51.4666 21.8004 51.2453 21.7549C51.024 21.7094 50.7943 21.73 50.5846 21.8141ZM36.9283 40.4688C36.2436 40.4688 35.5742 40.2653 35.0049 39.8842C34.4356 39.503 33.9919 38.9613 33.7298 38.3275C33.4678 37.6936 33.3992 36.9962 33.5328 36.3233C33.6664 35.6504 33.9961 35.0324 34.4803 34.5472C34.9645 34.0621 35.5813 33.7318 36.2529 33.5979C36.9245 33.4641 37.6206 33.5328 38.2532 33.7953C38.8858 34.0579 39.4265 34.5025 39.8069 35.0729C40.1873 35.6433 40.3903 36.314 40.3903 37C40.3903 37.92 40.0256 38.8023 39.3763 39.4528C38.7271 40.1033 37.8465 40.4688 36.9283 40.4688Z" fill="black"/>
</svg>
