<svg width="76" height="76" viewBox="0 0 76 76" fill="none" xmlns="http://www.w3.org/2000/svg">
<g clip-path="url(#clip0_60_842)">
<path d="M38 7.125C46.1886 7.125 54.0417 10.3779 59.8319 16.1681C65.6221 21.9583 68.875 29.8114 68.875 38C68.875 46.1886 65.6221 54.0417 59.8319 59.8319C54.0417 65.6221 46.1886 68.875 38 68.875C29.8114 68.875 21.9583 65.6221 16.1681 59.8319C10.3779 54.0417 7.125 46.1886 7.125 38C7.125 29.8114 10.3779 21.9583 16.1681 16.1681C21.9583 10.3779 29.8114 7.125 38 7.125ZM38 76C48.0782 76 57.7437 71.9964 64.8701 64.8701C71.9964 57.7437 76 48.0782 76 38C76 27.9218 71.9964 18.2563 64.8701 11.1299C57.7437 4.00356 48.0782 0 38 0C27.9218 0 18.2563 4.00356 11.1299 11.1299C4.00356 18.2563 0 27.9218 0 38C0 48.0782 4.00356 57.7437 11.1299 64.8701C18.2563 71.9964 27.9218 76 38 76ZM29.5984 46.4016C24.9672 41.7703 24.9672 34.2445 29.5984 29.6133C34.2297 24.982 41.7555 24.982 46.3867 29.6133C47.782 31.0086 50.0383 31.0086 51.4188 29.6133C52.7992 28.218 52.8141 25.9617 51.4188 24.5813C43.9969 17.1594 31.9734 17.1594 24.5516 24.5813C17.1297 32.0031 17.1297 44.0266 24.5516 51.4484C31.9734 58.8703 43.9969 58.8703 51.4188 51.4484C52.8141 50.0531 52.8141 47.7969 51.4188 46.4164C50.0234 45.0359 47.7672 45.0211 46.3867 46.4164C41.7555 51.0477 34.2297 51.0477 29.5984 46.4164V46.4016Z" fill="#1E3050"/>
</g>
<defs>
<clipPath id="clip0_60_842">
<rect width="76" height="76" fill="white"/>
</clipPath>
</defs>
</svg>
