<svg width="41" height="47" viewBox="0 0 41 47" fill="none" xmlns="http://www.w3.org/2000/svg">
<g clip-path="url(#clip0_47_358)">
<path d="M26.3571 0H14.6429H11.7143C10.0944 0 8.78571 1.30871 8.78571 2.92857C8.78571 4.54844 10.0944 5.85714 11.7143 5.85714V18.0107C11.7143 19.0906 11.4123 20.1614 10.8449 21.0766L0.942634 37.1746C0.329464 38.1813 0 39.3252 0 40.5058C0 44.0109 2.84621 46.8571 6.35134 46.8571H34.6487C38.1538 46.8571 41 44.0109 41 40.5058C41 39.3344 40.6705 38.1813 40.0574 37.1746L30.1551 21.0857C29.5877 20.1614 29.2857 19.0998 29.2857 18.0199V5.85714C30.9056 5.85714 32.2143 4.54844 32.2143 2.92857C32.2143 1.30871 30.9056 0 29.2857 0H26.3571ZM17.5714 18.0107V5.85714H23.4286V18.0107C23.4286 20.1797 24.0326 22.3029 25.1674 24.1516L28.3248 29.2857H12.6752L15.8326 24.1516C16.9674 22.3029 17.5714 20.1797 17.5714 18.0107Z" fill="#1E3050"/>
</g>
<defs>
<clipPath id="clip0_47_358">
<rect width="41" height="46.8571" fill="white"/>
</clipPath>
</defs>
</svg>
