<svg width="63" height="63" viewBox="0 0 63 63" fill="none" xmlns="http://www.w3.org/2000/svg">
<g clip-path="url(#clip0_47_342)">
<path d="M50.486 28.4238L51.8765 27.0333L47.7052 22.862L40.064 15.2208L35.8927 11.0495L34.5022 12.44L31.7214 15.2208L7.21044 39.7318C5.93075 41.0114 4.99559 42.5988 4.4788 44.3337L0.122937 59.1486C-0.18468 60.1822 0.0983277 61.3019 0.873523 62.0648C1.64872 62.8277 2.75614 63.1107 3.78973 62.8154L18.5923 58.4595C20.3272 57.9427 21.9145 57.0075 23.1942 55.7279L47.7052 31.2169L50.486 28.4238ZM19.6874 49.1448L18.5677 51.938C18.0755 52.3195 17.5218 52.6025 16.9311 52.787L7.30888 55.6171L10.139 46.0072C10.3112 45.4042 10.6065 44.8505 10.988 44.3706L13.7811 43.2509V47.1884C13.7811 48.2712 14.6671 49.1572 15.7499 49.1572H19.6874V49.1448ZM44.629 2.3009L42.8571 4.08508L40.0763 6.86594L38.6735 8.25637L42.8448 12.4277L50.486 20.0689L54.6573 24.2402L56.0477 22.8497L58.8286 20.0689L60.6128 18.2847C63.689 15.2085 63.689 10.2251 60.6128 7.14895L55.777 2.3009C52.7009 -0.775269 47.7175 -0.775269 44.6413 2.3009H44.629ZM38.7966 22.9728L21.0778 40.6915C20.3149 41.4544 19.0599 41.4544 18.297 40.6915C17.5341 39.9286 17.5341 38.6736 18.297 37.9107L36.0157 20.1919C36.7786 19.429 38.0337 19.429 38.7966 20.1919C39.5595 20.9548 39.5595 22.2099 38.7966 22.9728Z" fill="#1E3050"/>
</g>
<defs>
<clipPath id="clip0_47_342">
<rect width="63" height="63" fill="white"/>
</clipPath>
</defs>
</svg>
