<svg width="155" height="155" viewBox="0 0 155 155" fill="none" xmlns="http://www.w3.org/2000/svg">
<path d="M78.3779 14.5312C42.9641 14.0529 14.0529 42.9641 14.5312 78.3779C15.0035 112.342 42.6583 139.996 76.6221 140.469C112.042 140.953 140.947 112.042 140.463 76.6281C139.996 42.6583 112.342 15.0035 78.3779 14.5312ZM116.65 113.601C116.529 113.731 116.381 113.834 116.217 113.901C116.052 113.968 115.875 113.997 115.698 113.988C115.52 113.979 115.347 113.931 115.19 113.847C115.034 113.764 114.897 113.646 114.791 113.504C112.083 109.961 108.767 106.928 104.997 104.546C97.2897 99.5996 87.5235 96.875 77.5 96.875C67.4765 96.875 57.7102 99.5996 50.0026 104.546C46.2332 106.927 42.9171 109.959 40.2092 113.501C40.1028 113.643 39.9664 113.76 39.8097 113.844C39.653 113.928 39.4799 113.976 39.3025 113.985C39.1251 113.994 38.9479 113.965 38.7833 113.898C38.6188 113.831 38.471 113.728 38.3504 113.598C29.4672 104.009 24.4352 91.4781 24.2187 78.4082C23.7253 48.9491 47.8986 24.2914 77.3698 24.2187C106.841 24.1461 130.781 48.0772 130.781 77.5C130.791 90.8851 125.744 103.78 116.65 113.601Z" fill="black"/>
<path d="M77.5 43.5938C71.5301 43.5938 66.1323 45.831 62.2967 49.8967C58.461 53.9624 56.5447 59.5842 56.9777 65.6177C57.8556 77.5 67.0617 87.1875 77.5 87.1875C87.9383 87.1875 97.1263 77.5 98.0224 65.6207C98.4704 59.6447 96.5692 54.0744 92.67 49.933C88.8192 45.8461 83.4306 43.5938 77.5 43.5938Z" fill="black"/>
</svg>
