<svg width="92" height="92" viewBox="0 0 92 92" fill="none" xmlns="http://www.w3.org/2000/svg">
<g clip-path="url(#clip0_42_50)">
<path d="M50.3125 -3.78145e-05C73.3305 -3.78145e-05 92 18.6695 92 41.6875C92 44.0773 90.0773 46 87.6875 46C85.2977 46 83.375 44.0773 83.375 41.6875C83.375 23.4312 68.5687 8.62496 50.3125 8.62496C47.9227 8.62496 46 6.70231 46 4.31246C46 1.92262 47.9227 -3.78145e-05 50.3125 -3.78145e-05ZM51.75 34.5C53.275 34.5 54.7375 35.1058 55.8159 36.1841C56.8942 37.2624 57.5 38.725 57.5 40.25C57.5 41.775 56.8942 43.2375 55.8159 44.3158C54.7375 45.3942 53.275 46 51.75 46C50.225 46 48.7625 45.3942 47.6841 44.3158C46.6058 43.2375 46 41.775 46 40.25C46 38.725 46.6058 37.2624 47.6841 36.1841C48.7625 35.1058 50.225 34.5 51.75 34.5ZM46 21.5625C46 19.1726 47.9227 17.25 50.3125 17.25C63.807 17.25 74.75 28.1929 74.75 41.6875C74.75 44.0773 72.8273 46 70.4375 46C68.0477 46 66.125 44.0773 66.125 41.6875C66.125 32.9547 59.0453 25.875 50.3125 25.875C47.9227 25.875 46 23.9523 46 21.5625ZM21.1133 0.251525C24.5992 -0.700819 28.2469 1.07809 29.6305 4.42027L36.818 21.6703C38.0398 24.5992 37.1953 27.9953 34.7336 29.9898L25.875 37.2492C31.8586 49.8992 42.1008 60.1414 54.7508 66.125L61.9922 57.2664C64.0047 54.8047 67.3828 53.9601 70.3117 55.182L87.5617 62.3695C90.9039 63.7531 92.6828 67.4007 91.7305 70.8867L87.418 86.6992C86.5734 89.8257 83.7344 92 80.5 92C36.0453 92 0 55.9546 0 11.5C0 8.26559 2.17422 5.42652 5.30078 4.56402L21.1133 0.251525Z" fill="#1E3050"/>
</g>
<defs>
<clipPath id="clip0_42_50">
<rect width="92" height="92" fill="white"/>
</clipPath>
</defs>
</svg>
