<svg width="255" height="194" viewBox="0 0 255 194" fill="none" xmlns="http://www.w3.org/2000/svg">
<path d="M37.4503 174.449C86.7517 200.227 166.686 200.227 215.988 174.449C265.289 148.672 265.289 106.936 215.988 81.1819C166.686 55.4282 86.7517 55.4041 37.4503 81.1819C-11.8511 106.96 -11.8511 148.69 37.4503 174.449Z" fill="#F5F5F5"/>
<path d="M64.6847 55.9737L76.5664 49.1156L64.6847 42.2575L52.6951 49.1156L64.6847 55.9737Z" stroke="#EBEBEB" stroke-width="1.45057" stroke-linecap="round" stroke-linejoin="round"/>
<path d="M55.4587 49.1216L64.6907 22.4386V54.451L55.4587 49.1216Z" fill="#E0E0E0"/>
<path d="M64.6907 54.451L73.9168 49.1216L64.6907 22.4386V54.451Z" fill="#E6E6E6"/>
<path d="M50.1653 64.3424L62.047 57.4843L50.1653 50.6262L38.1756 57.4843L50.1653 64.3424Z" stroke="#EBEBEB" stroke-width="1.45057" stroke-linecap="round" stroke-linejoin="round"/>
<path d="M40.9392 57.4903L50.1653 17.8646V62.8197L40.9392 57.4903Z" fill="#E0E0E0"/>
<path d="M50.1653 62.8197L59.3913 57.4903L50.1653 17.8646V62.8197Z" fill="#E6E6E6"/>
<path d="M35.6458 72.7112L47.5276 65.8531L35.6458 58.995L23.6502 65.8531L35.6458 72.7112Z" stroke="#EBEBEB" stroke-width="1.45057" stroke-linecap="round" stroke-linejoin="round"/>
<path d="M26.4199 65.8591L35.6458 42.2575V71.1885L26.4199 65.8591Z" fill="#E0E0E0"/>
<path d="M35.6458 71.1885L44.8719 65.8591L35.6458 42.2575V71.1885Z" fill="#E6E6E6"/>
<path d="M21.1263 81.08L33.0081 74.2219L21.1263 67.3638L9.13074 74.2219L21.1263 81.08Z" stroke="#EBEBEB" stroke-width="1.45057" stroke-linecap="round" stroke-linejoin="round"/>
<path d="M11.8944 74.2279L21.1265 34.1586V79.5572L11.8944 74.2279Z" fill="#E0E0E0"/>
<path d="M21.1263 79.5572L30.3524 74.2279L21.1263 34.1586V79.5572Z" fill="#E6E6E6"/>
<path d="M179.479 46.8555L242.845 83.4359" stroke="#EBEBEB" stroke-width="1.45057" stroke-miterlimit="10" stroke-linecap="round"/>
<path d="M242.845 79.5572C242.768 74.9653 242.446 70.3806 241.879 65.8231C241.28 60.8714 240.081 52.5146 235.315 49.757C230.55 46.9994 228.751 51.987 228.061 54.4389C227.162 57.6223 222.493 55.608 221.845 50.3625C221.197 45.117 220.772 28.4034 215.173 25.1843C209.574 21.9651 207.769 29.7283 207.133 31.8984C205.881 36.1608 202.206 34.9858 201.007 32.1622C199.808 29.3387 196.535 28.6492 195.3 32.6238C194.066 36.5984 193.304 41.1605 189.305 38.8164C185.792 36.7602 187.405 33.0134 183.982 31.233C181.272 29.8302 180.013 36.5204 180.013 43.2886L242.845 79.5572Z" fill="#E0E0E0"/>
<path d="M238.241 44.6734C238.241 45.4048 237.582 45.6146 236.778 45.153L231.983 42.3715C231.588 42.1479 231.251 41.8363 230.996 41.4609C230.744 41.0855 230.58 40.6564 230.52 40.2072C230.52 39.482 231.178 39.2661 231.983 39.7338L236.778 42.5153C237.172 42.7374 237.509 43.0479 237.764 43.4224C238.017 43.7969 238.181 44.2251 238.241 44.6734Z" fill="#E6E6E6"/>
<path d="M218.554 21.1558C218.554 21.8871 217.901 22.0969 217.091 21.6353L212.295 18.8537C211.9 18.6314 211.562 18.32 211.309 17.9444C211.055 17.5688 210.891 17.1392 210.833 16.6896C210.833 15.9642 211.485 15.7484 212.295 16.216L217.091 18.9976C217.486 19.219 217.823 19.5293 218.077 19.9039C218.332 20.2785 218.495 20.7072 218.554 21.1558Z" fill="#E6E6E6"/>
<path d="M202.961 25.484C202.961 26.2155 202.309 26.4252 201.504 25.9637L196.709 23.182C196.313 22.9596 195.976 22.6483 195.722 22.2727C195.468 21.897 195.305 21.4674 195.246 21.0179C195.246 20.2924 195.9 20.0766 196.709 20.5442L201.504 23.3259C201.898 23.5483 202.234 23.8591 202.487 24.2336C202.739 24.6081 202.903 25.0361 202.961 25.484Z" fill="#E6E6E6"/>
<path d="M188.179 26.9168C188.179 27.6481 187.524 27.858 186.715 27.3904L181.92 24.6148C181.526 24.3911 181.189 24.0792 180.938 23.7038C180.685 23.3282 180.522 22.8994 180.463 22.4507C180.463 21.7252 181.116 21.5094 181.92 21.977L186.715 24.7527C187.11 24.9757 187.447 25.2873 187.701 25.6628C187.955 26.0383 188.118 26.4675 188.179 26.9168Z" fill="#E6E6E6"/>
<path d="M176.842 41.4542V1.82242" stroke="#EBEBEB" stroke-width="1.45057" stroke-miterlimit="10" stroke-linecap="round"/>
<path d="M23.2486 129.116C23.2486 129.116 24.2317 120.316 21.504 111.935C18.9383 104.01 13.7827 99.8077 10.6594 98.5489C4.75454 96.1929 4.22701 102.697 8.65119 107.199C11.8944 110.508 19.6997 117.331 21.0424 128.901L23.2486 129.116Z" fill="#91C8E4"/>
<path opacity="0.7" d="M23.2486 129.116C23.2486 129.116 24.2317 120.316 21.504 111.935C18.9383 104.01 13.7827 99.8077 10.6594 98.5489C4.75454 96.1929 4.22701 102.697 8.65119 107.199C11.8944 110.508 19.6997 117.331 21.0424 128.901L23.2486 129.116Z" fill="white"/>
<path d="M9.06482 100.365C12.6317 102.763 22.2175 109.687 22.5651 129.051" stroke="#FAFAFA" stroke-width="1.45057" stroke-miterlimit="10" stroke-linecap="round"/>
<path d="M20.7367 135.13C18.9023 126.257 15.1556 123.038 8.45936 119.609C5.59383 118.146 2.23674 116.515 1.02578 114.651C-0.185172 112.787 0.426301 110.281 4.55074 110.335C12.0862 110.437 20.6708 119.519 21.8158 129.47L20.7367 135.13Z" fill="#91C8E4"/>
<path opacity="0.8" d="M20.7367 135.13C18.9023 126.257 15.1556 123.038 8.45936 119.609C5.59383 118.146 2.23674 116.515 1.02578 114.651C-0.185172 112.787 0.426301 110.281 4.55074 110.335C12.0862 110.437 20.6708 119.519 21.8158 129.47L20.7367 135.13Z" fill="white"/>
<path d="M3.91531 112.265C9.6044 113.038 18.5907 119.669 21.4442 131.448" stroke="#FAFAFA" stroke-width="1.45057" stroke-miterlimit="10" stroke-linecap="round"/>
<path d="M230.91 124.962C233.217 120.526 235.01 108.081 232.043 102.326C229.075 96.5705 224.663 97.0323 223.979 98.8965C223.38 100.617 224.861 103.692 226.779 107.355C228.697 111.018 230.315 118.865 228.5 122.522L230.91 124.962Z" fill="#91C8E4"/>
<path opacity="0.7" d="M230.91 124.962C233.217 120.526 235.01 108.081 232.043 102.326C229.075 96.5705 224.663 97.0323 223.979 98.8965C223.38 100.617 224.861 103.692 226.779 107.355C228.697 111.018 230.315 118.865 228.5 122.522L230.91 124.962Z" fill="white"/>
<path d="M226.893 99.1963C228.781 100.713 234.189 109.987 230.405 122.714" stroke="#FAFAFA" stroke-width="1.45057" stroke-miterlimit="10" stroke-linecap="round"/>
<path d="M230.178 129.662C228.788 126.88 225.741 122.276 227.816 119.117C229.89 115.958 232.06 118.751 233.727 116.689C235.393 114.627 233.486 111.294 234.926 109.495C237.708 105.958 239.721 110.065 241.903 109.525C243.481 109.136 245.237 105.641 249.774 106.066C254.313 106.492 254.085 110.089 252.065 111.779C250.045 113.47 247.647 115.154 249.206 117.69C250.584 119.938 251.298 124.093 246.579 125.705C242.072 127.246 244.302 129.2 243.582 131.406C242.863 133.613 238.607 135.705 234.08 134.002L230.178 129.662Z" fill="#91C8E4"/>
<path opacity="0.8" d="M230.178 129.662C228.788 126.88 225.741 122.276 227.816 119.117C229.89 115.958 232.06 118.751 233.727 116.689C235.393 114.627 233.486 111.294 234.926 109.495C237.708 105.958 239.721 110.065 241.903 109.525C243.481 109.136 245.237 105.641 249.774 106.066C254.313 106.492 254.085 110.089 252.065 111.779C250.045 113.47 247.647 115.154 249.206 117.69C250.584 119.938 251.298 124.093 246.579 125.705C242.072 127.246 244.302 129.2 243.582 131.406C242.863 133.613 238.607 135.705 234.08 134.002L230.178 129.662Z" fill="white"/>
<path d="M250.398 108.105C245.482 109.423 233.708 118.991 232.713 130.999" stroke="#FAFAFA" stroke-width="1.45057" stroke-miterlimit="10" stroke-linecap="round"/>
<path d="M246.855 120.712C244.428 120.16 238.259 120.082 235.951 121.203" stroke="#FAFAFA" stroke-width="1.45057" stroke-miterlimit="10" stroke-linecap="round"/>
<path d="M237.324 110.551C237.324 110.551 239.122 114.033 238.865 116.965" stroke="#FAFAFA" stroke-width="1.45057" stroke-miterlimit="10" stroke-linecap="round"/>
<path d="M170.265 76.5299C169.462 73.7478 168.025 71.1893 166.069 69.0544C163.757 66.5326 161.052 64.401 158.061 62.7417C154.586 60.7736 150.892 59.2223 147.053 58.1197C142.825 56.8995 138.489 56.0964 134.105 55.7219C129.576 55.3082 125.019 55.3082 120.491 55.7219C116.108 56.0964 111.773 56.8995 107.548 58.1197C103.708 59.2212 100.011 60.7727 96.5353 62.7417C93.5431 64.4155 90.8407 66.5613 88.5322 69.0962C86.5775 71.2325 85.1415 73.7906 84.336 76.5718C83.6196 79.1446 83.6196 81.8643 84.336 84.4371C85.1351 87.2192 86.5719 89.7768 88.5322 91.9066C90.8423 94.444 93.5468 96.5918 96.5414 98.2672C100.013 100.235 103.706 101.784 107.542 102.883C111.769 104.109 116.106 104.92 120.491 105.305C125.02 105.713 129.576 105.713 134.105 105.305C138.492 104.918 142.831 104.105 147.06 102.877C150.896 101.778 154.589 100.229 158.061 98.2611C161.056 96.5874 163.76 94.4393 166.069 91.9006C168.027 89.7689 169.464 87.212 170.265 84.4311C170.982 81.8462 170.982 79.1148 170.265 76.5299Z" fill="#37474F"/>
<path d="M83.7964 76.5418H170.799V80.978L83.7964 80.7322V76.5418Z" fill="#37474F"/>
<path d="M120.491 51.7473L127.289 76.5299L107.548 54.1692C111.773 52.9408 116.108 52.1296 120.491 51.7473Z" fill="#455A64"/>
<path d="M134.105 51.7473L127.307 76.5299L120.509 51.7354C125.032 51.3268 129.583 51.3308 134.105 51.7473Z" fill="#455A64"/>
<path d="M147.053 54.1692L127.307 76.5299L134.105 51.7354C138.491 52.1216 142.827 52.9368 147.053 54.1692Z" fill="#455A64"/>
<path d="M166.063 65.1397C168.019 67.2777 169.454 69.838 170.26 72.6213L127.313 76.5299L166.063 65.1397Z" fill="#455A64"/>
<path d="M170.265 72.6273C170.976 75.1988 170.976 77.915 170.265 80.4865L127.313 76.5299L170.265 72.6273Z" fill="#455A64"/>
<path d="M170.265 80.4865C169.462 83.2687 168.025 85.8272 166.069 87.962L127.313 76.5718L170.265 80.4865Z" fill="#455A64"/>
<path d="M166.069 87.962C163.76 90.4987 161.055 92.6446 158.06 94.3165L127.301 76.5299L166.069 87.962Z" fill="#455A64"/>
<path d="M127.307 76.5599L147.06 98.9385C142.829 100.159 138.491 100.962 134.105 101.336L127.301 76.5418L127.307 76.5599Z" fill="#455A64"/>
<path d="M127.301 76.5659L134.105 101.36C129.576 101.774 125.019 101.774 120.491 101.36L127.301 76.5659Z" fill="#455A64"/>
<path d="M127.289 76.5599L120.479 101.354C116.092 100.981 111.753 100.177 107.524 98.9566L127.289 76.5599Z" fill="#455A64"/>
<path d="M127.289 76.5599L107.506 98.9386C103.67 97.8349 99.9781 96.2836 96.5054 94.3166L127.289 76.5599Z" fill="#455A64"/>
<path d="M127.283 76.5299L88.5262 87.9201C86.5668 85.7872 85.1302 83.228 84.3298 80.4446L127.283 76.5299Z" fill="#455A64"/>
<path d="M127.283 76.5299L84.336 80.4865C83.6195 77.9158 83.6195 75.198 84.336 72.6273L127.283 76.5299Z" fill="#455A64"/>
<path d="M127.283 76.5299L84.3358 72.6032C85.1426 69.8207 86.5785 67.2608 88.5322 65.1218L127.283 76.5299Z" fill="#455A64"/>
<path d="M96.5353 58.7973L127.283 76.53L88.5322 65.1398C90.8414 62.6089 93.5439 60.4672 96.5353 58.7973Z" fill="#455A64"/>
<path d="M158.061 58.7972L127.307 76.5299L147.053 54.1572C150.893 55.263 154.587 56.8206 158.061 58.7972Z" fill="#455A64"/>
<path d="M158.061 58.7973C161.052 60.4656 163.756 62.6075 166.063 65.1398L127.313 76.53L158.061 58.7973Z" fill="#455A64"/>
<path d="M127.289 76.5299L96.5233 94.2926C93.529 92.6192 90.8245 90.4734 88.5142 87.938L127.271 76.5478L127.289 76.5299Z" fill="#455A64"/>
<path d="M107.548 54.1693L127.289 76.53L96.5353 58.7733C100.011 56.8081 103.708 55.2625 107.548 54.1693Z" fill="#455A64"/>
<path d="M127.307 76.5599L158.061 94.3166C154.587 96.2836 150.896 97.8349 147.06 98.9386L127.307 76.5599Z" fill="#455A64"/>
<path d="M100.989 51.5195L125.418 65.6194L124.219 45.6866C115.233 46.0702 107.602 47.9886 100.989 51.5195Z" fill="#91C8E4"/>
<path opacity="0.2" d="M100.989 51.5195L125.418 65.6194L124.219 45.6866C115.233 46.0702 107.602 47.9886 100.989 51.5195Z" fill="white"/>
<path d="M125.418 65.6194V73.3166L100.989 59.2108V51.5195L125.418 65.6194Z" fill="#91C8E4"/>
<path opacity="0.1" d="M125.418 65.6194V73.3166L100.989 59.2108V51.5195L125.418 65.6194Z" fill="black"/>
<path d="M157.089 53.4979L129.051 66.1469V73.8383L157.089 61.1892V53.4979Z" fill="#91C8E4"/>
<path opacity="0.3" d="M157.089 53.4979L129.051 66.1469V73.8383L157.089 61.1892V53.4979Z" fill="black"/>
<path d="M157.089 53.4978C149.542 48.3602 139.477 45.6506 127.81 45.6146L128.56 58.0779L129.051 66.1469L157.089 53.4978Z" fill="#91C8E4"/>
<path opacity="0.1" d="M157.089 53.4978C149.542 48.3602 139.477 45.6506 127.81 45.6146L128.56 58.0779L129.051 66.1469L157.089 53.4978Z" fill="black"/>
<path d="M127.804 45.6146V53.306L129.051 73.8383V66.1469L127.804 45.6146Z" fill="#263238"/>
<path d="M134.752 80.9601L149.086 94.7482C149.89 94.4424 150.632 94.1488 151.483 93.7411C161.357 89.2929 166.519 82.6266 166.512 75.9004V68.2871C165.427 65.3915 162.442 65.3976 159.319 62.8497L130.046 76.0384L129.753 76.1703L134.752 80.9601Z" fill="#91C8E4"/>
<path opacity="0.6" d="M134.752 80.9601L149.086 94.7482C149.89 94.4424 150.632 94.1488 151.483 93.7411C161.357 89.2929 166.519 82.6266 166.512 75.9004V68.2871C165.427 65.3915 162.442 65.3976 159.319 62.8497L130.046 76.0384L129.753 76.1703L134.752 80.9601Z" fill="white"/>
<path d="M134.752 73.2687L149.086 87.0568C149.89 86.751 150.632 86.4574 151.483 86.0437C168.012 78.5802 171.321 64.9119 159.332 55.1344L130.058 68.3229L129.765 68.4548L134.752 73.2687Z" fill="#91C8E4"/>
<path opacity="0.8" d="M134.752 73.2687L149.086 87.0568C149.89 86.751 150.632 86.4574 151.483 86.0437C168.012 78.5802 171.321 64.9119 159.332 55.1344L130.058 68.3229L129.765 68.4548L134.752 73.2687Z" fill="white"/>
<path d="M149.062 94.7362V87.0388L129.735 68.4729V76.1643L149.062 94.7362Z" fill="#91C8E4"/>
<path opacity="0.6" d="M149.062 94.7362V87.0388L129.735 68.4729V76.1643L149.062 94.7362Z" fill="white"/>
<path d="M98.4476 60.6796C94.3292 63.2753 89.7551 64.912 88.0886 68.0652V75.7626C88.0886 79.773 89.953 83.8375 93.8196 87.5543C99.2149 92.7278 107.758 96.3847 117.907 97.8414C127.299 99.228 136.882 98.5302 145.975 95.7972V88.1059L133.355 83.6698L125.946 76.5299L98.4476 60.6796Z" fill="#91C8E4"/>
<path opacity="0.6" d="M98.4476 60.6796C94.3292 63.2753 89.7551 64.912 88.0886 68.0652V75.7626C88.0886 79.773 89.953 83.8375 93.8196 87.5543C99.2149 92.7278 107.758 96.3847 117.907 97.8414C127.299 99.228 136.882 98.5302 145.975 95.7972V88.1059L133.355 83.6698L125.946 76.5299L98.4476 60.6796Z" fill="black"/>
<path d="M98.4476 52.9882C86.6139 60.4338 84.7075 71.1046 93.8196 79.8571C99.2149 85.0366 107.758 88.6874 117.907 90.1502C127.3 91.5336 136.881 90.8356 145.975 88.106L133.355 75.9784L125.946 68.8625L98.4476 52.9882Z" fill="#91C8E4"/>
<path opacity="0.3" d="M98.4476 52.9882C86.6139 60.4338 84.7075 71.1046 93.8196 79.8571C99.2149 85.0366 107.758 88.6874 117.907 90.1502C127.3 91.5336 136.881 90.8356 145.975 88.106L133.355 75.9784L125.946 68.8625L98.4476 52.9882Z" fill="black"/>
<path d="M235.759 136.868C234.955 134.086 233.52 131.527 231.562 129.392C229.256 126.856 226.553 124.71 223.56 123.038C220.086 121.07 216.392 119.518 212.553 118.416C208.325 117.196 203.989 116.392 199.605 116.018C195.076 115.604 190.519 115.604 185.99 116.018C181.608 116.393 177.273 117.196 173.047 118.416C169.209 119.518 165.515 121.07 162.041 123.038C159.045 124.71 156.341 126.856 154.032 129.392C152.077 131.528 150.64 134.086 149.835 136.868C149.119 139.44 149.119 142.161 149.835 144.733C150.635 147.515 152.072 150.073 154.032 152.203C156.341 154.74 159.047 156.887 162.041 158.564C165.514 160.529 169.205 162.078 173.041 163.179C177.272 164.397 181.611 165.2 185.996 165.577C190.525 165.985 195.081 165.985 199.61 165.577C203.996 165.2 208.335 164.397 212.565 163.179C216.402 162.081 220.095 160.529 223.566 158.557C226.563 156.886 229.269 154.74 231.581 152.203C233.537 150.069 234.973 147.514 235.777 144.733C236.485 142.158 236.478 139.439 235.759 136.868Z" fill="#37474F"/>
<path d="M149.29 136.862H236.292V141.298L149.29 141.053V136.862Z" fill="#37474F"/>
<path d="M185.984 112.067L192.788 136.862L173.041 114.489C177.267 113.261 181.601 112.45 185.984 112.067Z" fill="#455A64"/>
<path d="M199.598 112.067L192.8 136.862L185.996 112.067C190.521 111.654 195.073 111.654 199.598 112.067Z" fill="#455A64"/>
<path d="M212.548 114.489L192.8 136.862L199.598 112.067C203.984 112.45 208.32 113.261 212.548 114.489Z" fill="#455A64"/>
<path d="M231.557 125.466C233.513 127.603 234.95 130.163 235.753 132.947L192.807 136.874L231.557 125.466Z" fill="#455A64"/>
<path d="M235.76 132.947C236.473 135.518 236.473 138.235 235.76 140.807L192.812 136.874L235.76 132.947Z" fill="#455A64"/>
<path d="M235.76 140.807C234.954 143.588 233.518 146.146 231.562 148.282L192.807 136.892L235.76 140.807Z" fill="#455A64"/>
<path d="M231.569 148.282C229.255 150.816 226.548 152.962 223.554 154.637L192.795 136.874L231.569 148.282Z" fill="#455A64"/>
<path d="M192.8 136.88L212.553 159.258C208.323 160.477 203.984 161.28 199.598 161.657L192.795 136.862L192.8 136.88Z" fill="#455A64"/>
<path d="M192.795 136.886L199.598 161.657C195.069 162.068 190.513 162.068 185.984 161.657L192.795 136.886Z" fill="#455A64"/>
<path d="M192.788 136.88L185.984 161.657C181.599 161.28 177.26 160.475 173.029 159.258L192.788 136.88Z" fill="#455A64"/>
<path d="M192.788 136.88L173.005 159.258C169.171 158.153 165.478 156.601 162.005 154.637L192.788 136.88Z" fill="#455A64"/>
<path d="M192.776 136.874L154.02 148.264C152.06 146.132 150.624 143.572 149.823 140.788L192.776 136.874Z" fill="#455A64"/>
<path d="M192.776 136.874L149.83 140.807C149.112 138.235 149.112 135.518 149.83 132.947L192.776 136.874Z" fill="#455A64"/>
<path d="M192.776 136.868L149.83 132.941C150.635 130.158 152.071 127.598 154.025 125.46L192.776 136.868Z" fill="#455A64"/>
<path d="M162.034 119.093L192.776 136.844L154.025 125.454C156.335 122.915 159.039 120.767 162.034 119.093Z" fill="#455A64"/>
<path d="M223.554 119.093L192.8 136.844L212.548 114.471C216.386 115.571 220.08 117.123 223.554 119.093Z" fill="#455A64"/>
<path d="M223.554 119.093C226.547 120.763 229.249 122.907 231.557 125.442L192.812 136.832L223.554 119.093Z" fill="#455A64"/>
<path d="M192.788 136.868L162.029 154.637C159.036 152.962 156.332 150.816 154.02 148.282L192.776 136.892L192.788 136.868Z" fill="#455A64"/>
<path d="M173.041 114.489L192.788 136.862L162.034 119.093C165.509 117.129 169.203 115.583 173.041 114.489Z" fill="#455A64"/>
<path d="M192.8 136.88L223.554 154.637C220.08 156.603 216.389 158.154 212.553 159.258L192.8 136.88Z" fill="#455A64"/>
<path d="M154.47 127.132V139.589C154.154 138.452 153.992 137.276 153.989 136.094V127.132H154.47Z" fill="#91C8E4"/>
<path opacity="0.3" d="M154.47 127.132V139.589C154.154 138.452 153.992 137.276 153.989 136.094V127.132H154.47Z" fill="black"/>
<path d="M192.776 127.144L154.469 130.645C153.834 128.352 153.834 125.93 154.469 123.637L192.776 127.144Z" fill="#91C8E4"/>
<path d="M192.776 127.132L154.469 123.625C155.189 121.143 156.471 118.86 158.216 116.953L192.776 127.132Z" fill="#91C8E4"/>
<path d="M165.356 111.3L192.776 127.132L158.216 116.941C160.277 114.689 162.688 112.785 165.356 111.3Z" fill="#91C8E4"/>
<path d="M175.175 107.175L192.788 127.126L165.356 111.3C168.455 109.542 171.75 108.157 175.175 107.175Z" fill="#91C8E4"/>
<path d="M186.722 105.017L192.788 127.126L175.175 107.176C178.944 106.079 182.811 105.356 186.722 105.017Z" fill="#91C8E4"/>
<path d="M198.897 105.017L192.8 127.126L186.734 105.017C190.78 104.645 194.851 104.645 198.897 105.017Z" fill="#91C8E4"/>
<path d="M210.412 107.176L192.8 127.126L198.897 105.017C202.797 105.358 206.654 106.081 210.412 107.176Z" fill="#91C8E4"/>
<g opacity="0.2">
<path d="M192.776 127.144L154.469 130.645C153.834 128.352 153.834 125.93 154.469 123.637L192.776 127.144Z" fill="white"/>
<path d="M192.776 127.132L154.47 123.625C155.189 121.143 156.471 118.86 158.216 116.953L192.776 127.132Z" fill="white"/>
<path d="M165.356 111.3L192.776 127.132L158.216 116.941C160.277 114.689 162.688 112.785 165.356 111.3Z" fill="white"/>
<path d="M175.175 107.175L192.788 127.126L165.356 111.3C168.455 109.542 171.75 108.157 175.175 107.175Z" fill="white"/>
<path d="M186.722 105.017L192.788 127.126L175.175 107.175C178.944 106.079 182.811 105.356 186.722 105.017Z" fill="white"/>
<path d="M198.897 105.017L192.8 127.126L186.734 105.017C190.78 104.645 194.851 104.645 198.897 105.017Z" fill="white"/>
<path d="M210.412 107.175L192.8 127.126L198.897 105.017C202.797 105.358 206.654 106.081 210.412 107.175Z" fill="white"/>
</g>
<path d="M225.274 133.115L219.525 138.511L215.155 142.641L210.989 146.561L210.431 147.083V156.034C213.855 155.052 217.152 153.669 220.25 151.915C222.921 150.417 225.334 148.501 227.396 146.237C229.141 144.337 230.418 142.058 231.132 139.577C231.449 138.44 231.612 137.264 231.617 136.082V127.138L225.274 133.115Z" fill="#91C8E4"/>
<path opacity="0.3" d="M225.274 133.115L219.525 138.511L215.155 142.641L210.989 146.561L210.431 147.083V156.034C213.855 155.052 217.152 153.669 220.25 151.915C222.921 150.417 225.334 148.501 227.396 146.237C229.141 144.337 230.418 142.058 231.132 139.577C231.449 138.44 231.612 137.264 231.617 136.082V127.138L225.274 133.115Z" fill="black"/>
<path d="M227.372 116.965C229.115 118.873 230.397 121.156 231.12 123.637L192.807 127.144L227.372 116.965Z" fill="#91C8E4"/>
<path d="M231.599 127.15C231.595 128.334 231.43 129.511 231.113 130.651L219.508 129.584L192.807 127.138L225.257 124.141L231.113 123.607C231.434 124.761 231.597 125.953 231.599 127.15Z" fill="#91C8E4"/>
<path d="M231.113 130.651C230.4 133.13 229.121 135.409 227.379 137.312L215.137 133.715L192.807 127.12L219.508 129.566L231.113 130.651Z" fill="#91C8E4"/>
<path d="M227.379 137.312C225.316 139.574 222.903 141.492 220.233 142.989L210.97 137.629L192.812 127.15L215.143 133.744L227.379 137.312Z" fill="#91C8E4"/>
<path d="M220.233 111.3L192.8 127.138L210.412 107.187C213.836 108.168 217.131 109.548 220.233 111.3Z" fill="#91C8E4"/>
<path d="M220.233 111.3C222.901 112.793 225.312 114.706 227.372 116.965L192.807 127.156L220.233 111.3Z" fill="#91C8E4"/>
<path d="M220.233 142.989C217.133 144.741 213.836 146.122 210.412 147.102L192.812 127.15L210.97 137.629L220.233 142.989Z" fill="#91C8E4"/>
<g opacity="0.2">
<path d="M227.372 116.965C229.115 118.873 230.397 121.156 231.12 123.637L192.807 127.144L227.372 116.965Z" fill="white"/>
<path d="M231.599 127.15C231.595 128.334 231.43 129.511 231.113 130.651L219.508 129.584L192.807 127.138L225.257 124.141L231.113 123.607C231.434 124.761 231.597 125.953 231.599 127.15Z" fill="white"/>
<path d="M231.113 130.651C230.4 133.13 229.121 135.409 227.379 137.312L215.137 133.715L192.807 127.12L219.508 129.566L231.113 130.651Z" fill="white"/>
<path d="M227.379 137.312C225.316 139.574 222.903 141.492 220.233 142.989L210.97 137.629L192.812 127.15L215.143 133.744L227.379 137.312Z" fill="#91C8E4"/>
<path d="M220.233 111.3L192.8 127.138L210.412 107.187C213.836 108.168 217.131 109.548 220.233 111.3Z" fill="white"/>
<path d="M220.233 111.3C222.901 112.793 225.312 114.706 227.372 116.965L192.807 127.156L220.233 111.3Z" fill="white"/>
<path d="M220.233 142.989C217.133 144.741 213.836 146.122 210.412 147.102L192.812 127.15L210.97 137.629L220.233 142.989Z" fill="#91C8E4"/>
</g>
<path d="M210.419 147.107V156.058L192.788 136.082V127.126L210.419 147.107Z" fill="#263238"/>
<path d="M192.788 136.082L154.469 139.601V130.645L192.788 127.126V136.082Z" fill="#91C8E4"/>
<path opacity="0.1" d="M192.788 136.082L154.469 139.601V130.645L192.788 127.126V136.082Z" fill="black"/>
<path d="M104.778 136.868C103.975 134.086 102.538 131.527 100.582 129.392C98.2734 126.857 95.5709 124.711 92.5787 123.038C89.1027 121.069 85.4063 119.517 81.5661 118.416C77.3407 117.196 73.0057 116.392 68.6234 116.018C64.0948 115.604 59.5378 115.604 55.0092 116.018C50.625 116.393 46.2881 117.196 42.0604 118.416C38.2184 119.517 34.5199 121.069 31.0419 123.038C28.0488 124.71 25.3462 126.856 23.0388 129.392C21.0822 131.527 19.646 134.086 18.8423 136.868C18.1319 139.442 18.1319 142.159 18.8423 144.733C19.6446 147.514 21.0811 150.07 23.0388 152.203C25.3456 154.741 28.0484 156.888 31.0419 158.564C34.5137 160.53 38.2061 162.08 42.0423 163.179C46.2726 164.397 50.6112 165.2 54.9971 165.577C59.5261 165.985 64.0825 165.985 68.6114 165.577C72.9972 165.2 77.336 164.397 81.5661 163.179C85.4036 162.081 89.0964 160.529 92.5667 158.557C95.5645 156.886 98.2713 154.74 100.582 152.203C102.54 150.07 103.976 147.514 104.778 144.733C105.489 142.159 105.489 139.442 104.778 136.868Z" fill="#37474F"/>
<path d="M18.3029 136.862H105.306V141.298L18.3029 141.053V136.862Z" fill="#37474F"/>
<path d="M55.0212 112.067L61.8194 136.862L42.0724 114.489C46.2994 113.261 50.6363 112.45 55.0212 112.067Z" fill="#455A64"/>
<path d="M68.6115 112.067L61.8133 136.862L55.0212 112.067C59.5419 111.655 64.0908 111.655 68.6115 112.067Z" fill="#455A64"/>
<path d="M81.5543 114.489L61.8134 136.862L68.6115 112.067C72.9946 112.45 77.3295 113.261 81.5543 114.489Z" fill="#455A64"/>
<path d="M100.582 125.466C102.538 127.603 103.975 130.163 104.778 132.947L61.8254 136.874L100.582 125.466Z" fill="#455A64"/>
<path d="M104.778 132.947C105.488 135.519 105.488 138.235 104.778 140.807L61.8254 136.874L104.778 132.947Z" fill="#455A64"/>
<path d="M104.778 140.807C103.975 143.588 102.539 146.148 100.582 148.282L61.8254 136.892L104.778 140.807Z" fill="#455A64"/>
<path d="M100.582 148.282C98.2699 150.816 95.5657 152.962 92.5726 154.637L61.8073 136.874L100.582 148.282Z" fill="#455A64"/>
<path d="M61.8134 136.88L81.5663 159.258C77.336 160.477 72.9973 161.28 68.6114 161.657L61.8013 136.862L61.8134 136.88Z" fill="#455A64"/>
<path d="M61.8013 136.886L68.6115 161.657C64.0906 162.065 59.5421 162.065 55.0212 161.657L61.8013 136.886Z" fill="#455A64"/>
<path d="M61.7953 136.88L55.0212 161.657C50.6353 161.28 46.2966 160.477 42.0663 159.258L61.7953 136.88Z" fill="#455A64"/>
<path d="M61.7953 136.88L42.0124 159.258C38.1872 158.153 34.5052 156.601 31.0419 154.637L61.7953 136.88Z" fill="#455A64"/>
<path d="M61.7894 136.874L23.0329 148.264C21.0762 146.129 19.6399 143.571 18.8365 140.788L61.7894 136.874Z" fill="#455A64"/>
<path d="M61.7894 136.874L18.8365 140.807C18.1262 138.235 18.1262 135.519 18.8365 132.947L61.7894 136.874Z" fill="#455A64"/>
<path d="M61.7894 136.868L18.8365 132.941C19.64 130.157 21.0762 127.597 23.0329 125.46L61.7894 136.868Z" fill="#455A64"/>
<path d="M31.0419 119.093L61.7894 136.844L23.0388 125.454C25.3452 122.915 28.048 120.767 31.0419 119.093Z" fill="#455A64"/>
<path d="M92.5668 119.093L61.8134 136.844L81.5543 114.471C85.3952 115.57 89.092 117.122 92.5668 119.093Z" fill="#455A64"/>
<path d="M92.5668 119.093C95.5647 120.771 98.2714 122.923 100.582 125.466L61.8313 136.856L92.5668 119.093Z" fill="#455A64"/>
<path d="M61.7953 136.868L31.0419 154.637C28.0478 152.963 25.3434 150.817 23.0327 148.282L61.7893 136.892L61.7953 136.868Z" fill="#455A64"/>
<path d="M42.0484 114.489L61.7953 136.862L31.0419 119.093C34.5159 117.129 38.2105 115.583 42.0484 114.489Z" fill="#455A64"/>
<path d="M61.8134 136.88L92.5668 154.637C89.094 156.603 85.4017 158.154 81.5663 159.258L61.8134 136.88Z" fill="#455A64"/>
<path d="M73.3713 121.491L78.329 115.868C78.329 109.274 70.272 109.112 66.7111 108.794C63.1501 108.476 57.0414 106.432 57.0414 113.938L58.7439 120.148C63.6598 119.832 68.5951 120.285 73.3713 121.491Z" fill="#91C8E4"/>
<path opacity="0.6" d="M73.3713 121.491L78.329 115.868C78.329 109.274 70.272 109.112 66.7111 108.794C63.1501 108.476 57.0414 106.432 57.0414 113.938L58.7439 120.148C63.6598 119.832 68.5951 120.285 73.3713 121.491Z" fill="white"/>
<path d="M73.3713 112.661L78.329 107.044C71.387 105.237 64.1951 104.585 57.0414 105.113L58.7439 111.3C63.6608 110.99 68.596 111.449 73.3713 112.661Z" fill="#91C8E4"/>
<path opacity="0.8" d="M73.3713 112.661L78.329 107.044C71.387 105.237 64.1951 104.585 57.0414 105.113L58.7439 111.3C63.6608 110.99 68.596 111.449 73.3713 112.661Z" fill="white"/>
<path d="M58.7439 111.324V120.16L57.0414 113.95V105.113L58.7439 111.324Z" fill="#91C8E4"/>
<path d="M78.329 107.044L73.3713 112.661V121.503L78.329 115.88V107.044Z" fill="#91C8E4"/>
<g opacity="0.6">
<path d="M58.7439 111.324V120.16L57.0414 113.95V105.113L58.7439 111.324Z" fill="white"/>
<path d="M78.329 107.044L73.3713 112.661V121.503L78.329 115.88V107.044Z" fill="white"/>
</g>
<path d="M75.7933 113.374V122.211C77.8617 122.878 79.858 123.752 81.7522 124.818C83.4049 125.757 84.9233 126.914 86.2662 128.259L95.9899 125.4C94.0564 123.426 91.8547 121.735 89.4495 120.376C86.7937 118.853 83.9522 112.679 75.7933 113.374Z" fill="#91C8E4"/>
<path opacity="0.6" d="M75.7933 113.374V122.211C77.8617 122.878 79.858 123.752 81.7522 124.818C83.4049 125.757 84.9233 126.914 86.2662 128.259L95.9899 125.4C94.0564 123.426 91.8547 121.735 89.4495 120.376C86.7937 118.853 83.9522 112.679 75.7933 113.374Z" fill="black"/>
<path d="M80.751 107.763L75.7933 113.374C77.8637 114.037 79.8605 114.911 81.7522 115.982C83.4049 116.92 84.9233 118.078 86.2662 119.423L95.9899 116.563C94.0596 114.586 91.8574 112.895 89.4495 111.54C86.6934 109.973 83.7772 108.707 80.751 107.763Z" fill="#91C8E4"/>
<path opacity="0.3" d="M80.751 107.763L75.7933 113.374C77.8637 114.037 79.8605 114.911 81.7522 115.982C83.4049 116.92 84.9233 118.078 86.2662 119.423L95.9899 116.563C94.0596 114.586 91.8574 112.895 89.4495 111.54C86.6934 109.973 83.7772 108.707 80.751 107.763Z" fill="black"/>
<path d="M86.2662 119.423L95.9897 116.557V125.4L86.2662 128.259V119.423Z" fill="#91C8E4"/>
<path opacity="0.6" d="M86.2662 119.423L95.9897 116.557V125.4L86.2662 128.259V119.423Z" fill="black"/>
<path d="M100.87 127.264H97.5844C97.4645 127.108 97.3626 126.952 97.2427 126.797L87.5071 120.802V129.644C89.5813 132.312 90.3667 135.225 89.8271 138.085L100.582 139.086C100.764 138.194 100.854 137.286 100.851 136.377L100.87 127.264Z" fill="#91C8E4"/>
<path opacity="0.6" d="M100.87 127.264H97.5844C97.4645 127.108 97.3626 126.952 97.2427 126.797L87.5071 120.802V129.644C89.5813 132.312 90.3667 135.225 89.8271 138.085L100.582 139.086C100.764 138.194 100.854 137.286 100.851 136.377L100.87 127.264Z" fill="black"/>
<path d="M89.8212 129.284L100.582 130.249C101.457 126.095 100.348 121.821 97.2367 117.96L87.5011 120.82C89.5753 123.487 90.3906 126.407 89.8212 129.284Z" fill="#91C8E4"/>
<path opacity="0.3" d="M89.8212 129.284L100.582 130.249C101.457 126.095 100.348 121.821 97.2367 117.96L87.5011 120.82C89.5753 123.487 90.3906 126.407 89.8212 129.284Z" fill="black"/>
<path d="M100.582 130.249V139.091L89.8211 138.103V129.266L100.582 130.249Z" fill="#91C8E4"/>
<path opacity="0.6" d="M100.582 130.249V139.091L89.8211 138.103V129.266L100.582 130.249Z" fill="black"/>
<path d="M56.0583 120.412V111.57C50.0634 108.806 38.901 111.612 35.1603 119.842L42.8577 124.291C46.9922 122.223 51.4623 120.909 56.0583 120.412Z" fill="#91C8E4"/>
<path opacity="0.3" d="M56.0583 120.412V111.57C50.0634 108.806 38.901 111.612 35.1603 119.842L42.8577 124.291C46.9922 122.223 51.4623 120.909 56.0583 120.412Z" fill="black"/>
<path d="M56.0582 111.57L54.3498 105.341C47.102 106.156 40.4657 108.153 35.1663 111.006L42.8637 115.448C46.9963 113.381 51.4645 112.068 56.0582 111.57Z" fill="#91C8E4"/>
<path opacity="0.1" d="M56.0582 111.57L54.3498 105.341C47.102 106.156 40.4657 108.153 35.1663 111.006L42.8637 115.448C46.9963 113.381 51.4645 112.068 56.0582 111.57Z" fill="black"/>
<path d="M42.8577 115.448V124.291L35.1603 119.843V111.006L42.8577 115.448Z" fill="#263238"/>
<path d="M34.8066 116.563L33.2239 120.945C28.0504 124.147 24.7833 128.001 23.4404 132.036L34.2311 133.019C35.2202 130.255 37.4743 127.624 40.9633 125.406V116.563H34.8066Z" fill="#91C8E4"/>
<path opacity="0.3" d="M34.8066 116.563L33.2239 120.945C28.0504 124.147 24.7833 128.001 23.4404 132.036L34.2311 133.019C35.2202 130.255 37.4743 127.624 40.9633 125.406V116.563H34.8066Z" fill="black"/>
<path d="M40.9394 116.563L33.2239 112.109C28.0504 115.304 24.7833 119.165 23.4404 123.194L34.2311 124.183C35.1963 121.419 37.4503 118.781 40.9394 116.563Z" fill="#91C8E4"/>
<path opacity="0.1" d="M40.9394 116.563L33.2239 112.109C28.0504 115.304 24.7833 119.165 23.4404 123.194L34.2311 124.183C35.1963 121.419 37.4503 118.781 40.9394 116.563Z" fill="black"/>
<path d="M23.4404 123.194V132.036L34.2072 133.019V124.183L23.4404 123.194Z" fill="#263238"/>
<path d="M33.7816 134.572V125.729L30.5803 125.442L22.7391 127.486V136.316C22.7892 139.824 24.0612 143.207 26.336 145.879L36.0716 143.018C34.0392 140.35 33.248 137.431 33.7816 134.572Z" fill="#91C8E4"/>
<path opacity="0.3" d="M33.7816 134.572V125.729L30.5803 125.442L22.7391 127.486V136.316C22.7892 139.824 24.0612 143.207 26.336 145.879L36.0716 143.018C34.0392 140.35 33.248 137.431 33.7816 134.572Z" fill="black"/>
<path d="M26.3719 137.042L36.1075 134.176V143.018L26.3719 145.879V137.042Z" fill="#263238"/>
<path d="M33.7876 125.729L22.9969 124.746C22.1216 128.907 23.2306 133.175 26.342 137.042L36.0776 134.176C34.0394 131.508 33.248 128.589 33.7876 125.729Z" fill="#91C8E4"/>
<path opacity="0.1" d="M33.7876 125.729L22.9969 124.746C22.1216 128.907 23.2306 133.175 26.342 137.042L36.0776 134.176C34.0394 131.508 33.248 128.589 33.7876 125.729Z" fill="black"/>
<path d="M45.3035 145.867C40.7415 143.235 38.4635 139.787 38.4635 136.341V127.486H85.1451V136.322C85.1451 139.775 82.8672 143.223 78.3051 145.855C69.193 151.13 54.4217 151.13 45.3035 145.867Z" fill="#37474F"/>
<path d="M61.8073 140.974C74.6964 140.974 85.1451 134.941 85.1451 127.498C85.1451 120.055 74.6964 114.022 61.8073 114.022C48.9181 114.022 38.4694 120.055 38.4694 127.498C38.4694 134.941 48.9181 140.974 61.8073 140.974Z" fill="#455A64"/>
<path d="M42.8577 148.395V147.269L27.6129 138.438V147.269C29.5469 149.243 31.7509 150.936 34.1593 152.293C36.9153 153.859 39.8316 155.125 42.8577 156.07L47.8095 150.458C46.1065 149.904 44.4506 149.214 42.8577 148.395Z" fill="#91C8E4"/>
<path opacity="0.3" d="M42.8577 148.395V147.269L27.6129 138.438V147.269C29.5469 149.243 31.7509 150.936 34.1593 152.293C36.9153 153.859 39.8316 155.125 42.8577 156.07L47.8095 150.458C46.1065 149.904 44.4506 149.214 42.8577 148.395Z" fill="black"/>
<path d="M41.8326 139.014C40.1779 138.078 38.6574 136.923 37.3125 135.579L27.5888 138.438C29.5244 140.412 31.7282 142.103 34.1352 143.462C36.8925 145.026 39.8084 146.292 42.8337 147.239L47.7854 141.621C45.7168 140.959 43.7221 140.085 41.8326 139.014Z" fill="#91C8E4"/>
<path opacity="0.1" d="M41.8326 139.014C40.1779 138.078 38.6574 136.923 37.3125 135.579L27.5888 138.438C29.5244 140.412 31.7282 142.103 34.1352 143.462C36.8925 145.026 39.8084 146.292 42.8337 147.239L47.7854 141.621C45.7168 140.959 43.7221 140.085 41.8326 139.014Z" fill="black"/>
<path d="M42.8577 156.075V147.239L47.8093 141.621V150.464L42.8577 156.075Z" fill="#263238"/>
<path d="M45.2796 147.952V156.795C52.2216 158.601 59.4135 159.254 66.5673 158.725V149.888L45.2796 147.952Z" fill="#91C8E4"/>
<path opacity="0.1" d="M45.2796 147.952V156.795C52.2216 158.601 59.4135 159.254 66.5673 158.725V149.888L45.2796 147.952Z" fill="black"/>
<path d="M50.2254 142.334L45.2675 147.952C52.2098 149.759 59.4012 150.412 66.5552 149.888L64.8646 143.672C59.9451 143.991 55.0058 143.54 50.2254 142.334Z" fill="#91C8E4"/>
<path opacity="0.2" d="M50.2254 142.334L45.2675 147.952C52.2098 149.759 59.4012 150.412 66.5552 149.888L64.8646 143.672C59.9451 143.991 55.0058 143.54 50.2254 142.334Z" fill="white"/>
<path d="M82.6693 147.269L90.3906 151.729C95.5643 148.533 98.8314 144.673 100.174 140.638V131.802L89.3836 139.656C88.4123 142.419 86.1583 145.057 82.6693 147.269Z" fill="#91C8E4"/>
<path opacity="0.1" d="M82.6693 147.269L90.3906 151.729C95.5643 148.533 98.8314 144.673 100.174 140.638V131.802L89.3836 139.656C88.4123 142.419 86.1583 145.057 82.6693 147.269Z" fill="black"/>
<path d="M82.6693 138.433L90.3906 142.892C95.5643 139.691 98.8314 135.836 100.174 131.802L89.3836 130.819C88.4123 133.583 86.1583 136.215 82.6693 138.433Z" fill="#91C8E4"/>
<path opacity="0.2" d="M82.6693 138.433L90.3906 142.892C95.5643 139.691 98.8314 135.836 100.174 131.802L89.3836 130.819C88.4123 133.583 86.1583 136.215 82.6693 138.433Z" fill="white"/>
<path d="M90.3847 142.892V151.729L82.6693 147.275V138.433L90.3847 142.892Z" fill="#91C8E4"/>
<path opacity="0.3" d="M90.3847 142.892V151.729L82.6693 147.275V138.433L90.3847 142.892Z" fill="black"/>
<path d="M69.2588 149.666V152.065C68.6894 152.155 68.1258 152.232 67.5503 152.298L69.2588 158.521C76.2428 157.742 82.9211 155.853 88.4423 152.868V144.002L69.2588 149.666Z" fill="#91C8E4"/>
<path opacity="0.1" d="M69.2588 149.666V152.065C68.6894 152.155 68.1258 152.232 67.5503 152.298L69.2588 158.521C76.2428 157.742 82.9211 155.853 88.4423 152.868V144.002L69.2588 149.666Z" fill="black"/>
<path d="M67.5503 143.432L69.2588 149.666C76.2428 148.888 82.9211 147.005 88.4423 144.02L80.727 139.56C76.603 141.631 72.1395 142.943 67.5503 143.432Z" fill="#91C8E4"/>
<path opacity="0.2" d="M67.5503 143.432L69.2588 149.666C76.2428 148.888 82.9211 147.005 88.4423 144.02L80.727 139.56C76.603 141.631 72.1395 142.943 67.5503 143.432Z" fill="white"/>
<path d="M69.2588 149.649V158.485L67.5503 152.274V143.432L69.2588 149.649Z" fill="#91C8E4"/>
<path opacity="0.3" d="M69.2588 149.649V158.485L67.5503 152.274V143.432L69.2588 149.649Z" fill="black"/>
<path d="M218.865 90.5219C218.844 90.132 218.732 89.7526 218.538 89.4142C218.342 89.0758 218.071 88.7878 217.744 88.5734L201.511 79.2036C200.912 78.8439 200.39 79.1377 200.39 79.8571V95.5455C200.41 95.9356 200.522 96.3153 200.716 96.6539C200.912 96.9924 201.183 97.2802 201.511 97.4938L208.309 101.414L210.455 110.101C210.447 110.26 210.505 110.415 210.612 110.533C210.719 110.65 210.869 110.72 211.028 110.727C211.187 110.735 211.342 110.678 211.459 110.571C211.576 110.463 211.647 110.314 211.654 110.155L213.621 104.478L217.775 106.876C218.374 107.235 218.896 106.942 218.896 106.228L218.865 90.5219Z" fill="#91C8E4"/>
<path opacity="0.5" d="M218.865 90.5219C218.844 90.132 218.732 89.7526 218.538 89.4142C218.342 89.0758 218.071 88.7878 217.744 88.5734L201.511 79.2036C200.912 78.8439 200.39 79.1377 200.39 79.8571V95.5455C200.41 95.9356 200.522 96.3153 200.716 96.6539C200.912 96.9924 201.183 97.2802 201.511 97.4938L208.309 101.414L210.455 110.101C210.447 110.26 210.505 110.415 210.612 110.533C210.719 110.65 210.869 110.72 211.028 110.727C211.187 110.735 211.342 110.678 211.459 110.571C211.576 110.463 211.647 110.314 211.654 110.155L213.621 104.478L217.775 106.876C218.374 107.235 218.896 106.942 218.896 106.228L218.865 90.5219Z" fill="white"/>
<path d="M206.54 86.3494C206.872 86.5379 207.177 86.7675 207.452 87.0328C207.696 87.2711 207.916 87.5342 208.104 87.8181C208.269 88.0694 208.404 88.339 208.507 88.6214C208.591 88.8616 208.645 89.1112 208.669 89.3648C208.669 89.6226 208.699 89.8923 208.699 90.1741C208.699 90.4559 208.699 90.7137 208.669 90.9534C208.654 91.1466 208.598 91.3345 208.507 91.5049C208.416 91.6624 208.274 91.7834 208.104 91.8467C207.89 91.9054 207.666 91.9054 207.452 91.8467C207.129 91.772 206.821 91.6444 206.54 91.469C206.207 91.2826 205.9 91.0549 205.623 90.7916C205.378 90.5604 205.16 90.3007 204.975 90.0182C204.662 89.5548 204.467 89.0217 204.406 88.4656C204.406 88.2077 204.406 87.938 204.406 87.6562C204.406 87.3745 204.406 87.1168 204.406 86.8829C204.425 86.6879 204.481 86.4983 204.574 86.3254C204.661 86.1655 204.804 86.0436 204.975 85.9837C205.185 85.9176 205.409 85.9073 205.623 85.9537C205.949 86.0305 206.261 86.1645 206.54 86.3494ZM212.271 90.0003C212.332 89.9552 212.406 89.9282 212.481 89.9223C212.591 89.9294 212.695 89.9646 212.787 90.0243L213.644 90.5218C213.743 90.5776 213.828 90.6531 213.896 90.7437C213.953 90.8203 213.983 90.9124 213.986 91.0074C213.989 91.0273 213.989 91.0474 213.986 91.0673C213.975 91.0895 213.961 91.1099 213.945 91.1273L206.882 96.3428C206.82 96.3884 206.748 96.4173 206.672 96.4267C206.562 96.4194 206.456 96.3821 206.366 96.3188L205.509 95.8273C205.41 95.7707 205.323 95.6929 205.257 95.5994C205.2 95.5254 205.166 95.4354 205.161 95.3416C205.157 95.3199 205.157 95.2974 205.161 95.2756C205.17 95.2524 205.184 95.2316 205.204 95.2157L212.271 90.0003ZM207.295 90.0003C207.304 89.9125 207.304 89.8242 207.295 89.7365V88.9631C207.303 88.8694 207.303 88.7752 207.295 88.6814C207.276 88.4708 207.213 88.2666 207.11 88.0818C206.971 87.8573 206.775 87.675 206.54 87.5543C206.265 87.3925 206.072 87.3505 205.941 87.4225C205.884 87.468 205.838 87.5254 205.806 87.5907C205.774 87.656 205.756 87.7274 205.755 87.8001C205.755 87.8541 205.755 87.938 205.755 88.0639C205.755 88.1898 205.755 88.3097 205.755 88.4416C205.755 88.5735 205.755 88.7053 205.755 88.8312C205.755 88.9571 205.755 89.053 205.755 89.119C205.778 89.3291 205.841 89.5327 205.941 89.7185C206.088 89.9465 206.296 90.1292 206.54 90.2461C206.816 90.4078 207.007 90.4499 207.11 90.3779C207.164 90.3345 207.208 90.2799 207.239 90.2179C207.271 90.1558 207.287 90.0877 207.29 90.0182L207.295 90.0003ZM212.727 94.922C213.06 95.1104 213.368 95.3401 213.644 95.6054C213.887 95.8435 214.104 96.1068 214.291 96.3907C214.461 96.6393 214.596 96.9095 214.694 97.1941C214.777 97.4348 214.833 97.6842 214.861 97.9374C214.861 98.1951 214.861 98.465 214.861 98.7466C214.861 99.0284 214.861 99.2862 214.861 99.526C214.842 99.7192 214.786 99.9068 214.694 100.078C214.652 100.158 214.596 100.23 214.527 100.289C214.458 100.347 214.378 100.392 214.291 100.419C214.08 100.481 213.855 100.481 213.644 100.419C213.32 100.345 213.009 100.217 212.727 100.042C212.395 99.8551 212.09 99.6275 211.816 99.3642C211.57 99.1314 211.35 98.872 211.162 98.5908C210.997 98.3403 210.862 98.0706 210.76 97.7875C210.677 97.5472 210.622 97.2975 210.598 97.0441C210.598 96.7804 210.598 96.5107 210.598 96.2289C210.598 95.9471 210.598 95.6893 210.598 95.4556C210.613 95.2604 210.668 95.0703 210.76 94.8981C210.849 94.7393 210.992 94.6178 211.162 94.5564C211.377 94.5035 211.6 94.5035 211.816 94.5564C212.14 94.6297 212.449 94.7595 212.727 94.9399V94.922ZM213.488 98.5908C213.494 98.503 213.494 98.415 213.488 98.3271V97.5717C213.488 97.4518 213.488 97.3559 213.488 97.2959C213.463 97.0865 213.4 96.8833 213.302 96.6965C213.154 96.47 212.946 96.2878 212.703 96.169C212.427 96.0071 212.236 95.9651 212.133 96.037C212.077 96.0825 212.031 96.1399 211.999 96.2052C211.967 96.2705 211.95 96.342 211.947 96.4147C211.942 96.5025 211.942 96.5907 211.947 96.6785C211.947 96.7983 211.947 96.9242 211.947 97.0562C211.947 97.1881 211.947 97.3199 211.947 97.4518C211.942 97.5457 211.942 97.6398 211.947 97.7336C211.966 97.9443 212.03 98.1487 212.133 98.3331C212.269 98.5589 212.467 98.7418 212.703 98.8606C212.979 99.0225 213.171 99.0644 213.302 98.9925C213.359 98.9452 213.404 98.8866 213.436 98.8205C213.468 98.7544 213.486 98.6823 213.488 98.6088V98.5908Z" fill="#FAFAFA"/>
<path d="M148.636 30.3699C148.615 29.9801 148.502 29.6008 148.307 29.2626C148.113 28.9242 147.841 28.6362 147.515 28.4214L131.281 19.0575C130.682 18.6979 130.16 18.9857 130.16 19.7049V35.3935C130.181 35.7842 130.293 36.1646 130.488 36.504C130.683 36.8434 130.955 37.1324 131.281 37.3477L138.08 41.2684L140.226 49.9368C140.249 50.0712 140.318 50.1934 140.42 50.2835C140.523 50.3737 140.653 50.4261 140.788 50.4324C140.924 50.4387 141.059 50.3984 141.169 50.3181C141.279 50.2379 141.359 50.1224 141.394 49.9909L143.361 44.3138L147.515 46.7116C148.114 47.0714 148.636 46.7836 148.636 46.0642V30.3699Z" fill="#91C8E4"/>
<path opacity="0.5" d="M148.636 30.3699C148.615 29.9801 148.502 29.6008 148.307 29.2626C148.113 28.9242 147.841 28.6362 147.515 28.4214L131.281 19.0575C130.682 18.6979 130.16 18.9857 130.16 19.7049V35.3935C130.181 35.7842 130.293 36.1646 130.488 36.504C130.683 36.8434 130.955 37.1324 131.281 37.3477L138.08 41.2684L140.226 49.9368C140.249 50.0712 140.318 50.1934 140.42 50.2835C140.523 50.3737 140.653 50.4261 140.788 50.4324C140.924 50.4387 141.059 50.3984 141.169 50.3181C141.279 50.2379 141.359 50.1224 141.394 49.9909L143.361 44.3138L147.515 46.7116C148.114 47.0714 148.636 46.7836 148.636 46.0642V30.3699Z" fill="white"/>
<path d="M136.311 26.2213C136.643 26.4098 136.948 26.6394 137.222 26.9047C137.466 27.1442 137.684 27.4074 137.875 27.6901C138.042 27.94 138.177 28.2099 138.278 28.4934C138.362 28.7335 138.416 28.9832 138.44 29.2367C138.44 29.4945 138.469 29.7643 138.469 30.046C138.469 30.3278 138.469 30.5856 138.44 30.8254C138.425 31.0206 138.37 31.2106 138.278 31.3829C138.191 31.5413 138.046 31.661 137.875 31.7186C137.665 31.7875 137.439 31.7978 137.222 31.7485C136.898 31.6739 136.591 31.5441 136.311 31.3648C135.977 31.1805 135.669 30.9527 135.393 30.6874C135.148 30.4562 134.93 30.1967 134.746 29.9141C134.577 29.6655 134.442 29.3954 134.344 29.1108C134.261 28.87 134.205 28.6207 134.177 28.3675C134.177 28.1038 134.177 27.8339 134.177 27.5581C134.177 27.2824 134.177 27.0127 134.177 26.7788C134.196 26.5837 134.252 26.3943 134.344 26.2213C134.431 26.0614 134.574 25.9397 134.746 25.8796C134.958 25.8266 135.182 25.8266 135.393 25.8796C135.717 25.9398 136.027 26.0554 136.311 26.2213ZM142.041 29.8722C142.104 29.8298 142.177 29.8031 142.251 29.7942C142.361 29.8015 142.467 29.8388 142.558 29.9022L143.415 30.3938C143.512 30.4513 143.597 30.5266 143.667 30.6156C143.722 30.6927 143.754 30.7844 143.757 30.8793C143.759 30.9012 143.759 30.9233 143.757 30.9453C143.745 30.9665 143.73 30.9867 143.715 31.0052L136.652 36.2207C136.589 36.263 136.518 36.2898 136.442 36.2986C136.332 36.2914 136.227 36.254 136.137 36.1907L135.28 35.6992C135.181 35.6449 135.095 35.5691 135.028 35.4774C134.973 35.4003 134.941 35.3085 134.938 35.2135C134.933 35.194 134.933 35.1732 134.938 35.1536C134.946 35.1284 134.961 35.1057 134.98 35.0876L142.041 29.8722ZM137.066 29.8722C137.075 29.7845 137.075 29.6962 137.066 29.6084V28.8351C137.075 28.7433 137.075 28.6511 137.066 28.5593C137.048 28.3483 136.985 28.1438 136.881 27.9598C136.745 27.7321 136.547 27.5472 136.311 27.4262C136.035 27.2704 135.843 27.2225 135.712 27.3005C135.655 27.347 135.611 27.4047 135.579 27.4697C135.547 27.5347 135.528 27.6056 135.526 27.678C135.526 27.7261 135.526 27.816 135.526 27.9358C135.526 28.0557 135.526 28.1816 135.526 28.3196C135.526 28.4574 135.526 28.5833 135.526 28.7092C135.526 28.8351 135.526 28.931 135.526 28.9909C135.548 29.2007 135.613 29.4042 135.712 29.5905C135.859 29.8184 136.066 30.0011 136.311 30.118C136.587 30.2798 136.778 30.3218 136.881 30.2498C136.936 30.2071 136.981 30.1527 137.013 30.0906C137.046 30.0285 137.063 29.96 137.066 29.8902V29.8722ZM142.498 34.7939C142.832 34.9825 143.141 35.2142 143.415 35.4834C143.659 35.7179 143.877 35.9794 144.062 36.2626C144.23 36.5119 144.365 36.7818 144.464 37.066C144.546 37.307 144.604 37.5562 144.632 37.8094C144.632 38.0731 144.632 38.3428 144.632 38.6246C144.632 38.9063 144.632 39.1642 144.632 39.3979C144.613 39.5931 144.557 39.7826 144.464 39.9554C144.377 40.1153 144.234 40.2372 144.062 40.2971C143.85 40.3565 143.627 40.3565 143.415 40.2971C143.09 40.2225 142.78 40.0948 142.498 39.9196C142.169 39.7296 141.863 39.5023 141.587 39.242C141.342 39.0059 141.122 38.7447 140.934 38.4628C140.768 38.2116 140.634 37.942 140.531 37.6594C140.447 37.4194 140.393 37.1696 140.369 36.916C140.369 36.6584 140.34 36.3885 140.34 36.1069C140.34 35.8251 140.34 35.5673 140.369 35.3275C140.384 35.1323 140.439 34.9425 140.531 34.77C140.622 34.6141 140.764 34.4952 140.934 34.4342C141.144 34.3662 141.37 34.3539 141.587 34.3983C141.912 34.4826 142.219 34.6226 142.498 34.8119V34.7939ZM143.259 38.4628C143.264 38.3749 143.264 38.2869 143.259 38.199V37.4436C143.259 37.3237 143.259 37.2278 143.259 37.1678C143.239 36.9575 143.175 36.7536 143.073 36.5684C142.926 36.3386 142.718 36.1538 142.474 36.0349C142.198 35.879 142.007 35.831 141.904 35.909C141.846 35.9537 141.799 36.0109 141.767 36.0764C141.735 36.1418 141.719 36.2138 141.718 36.2867C141.712 36.3724 141.712 36.4586 141.718 36.5444C141.718 36.6644 141.718 36.7901 141.718 36.9281C141.718 37.066 141.718 37.1918 141.718 37.3177C141.712 37.4116 141.712 37.5057 141.718 37.5995C141.736 37.8104 141.799 38.015 141.904 38.199C142.04 38.4267 142.238 38.6116 142.474 38.7325C142.749 38.8884 142.95 38.9303 143.073 38.8584C143.129 38.8128 143.176 38.7554 143.208 38.6901C143.24 38.625 143.258 38.5534 143.259 38.4808V38.4628Z" fill="#FAFAFA"/>
<path d="M37.1806 90.0362C37.2018 89.6465 37.3144 89.267 37.5092 88.9287C37.7038 88.5903 37.9753 88.3022 38.3016 88.0879L54.5355 78.718C55.1351 78.3583 55.6566 78.6521 55.6566 79.3714V95.0599C55.6363 95.45 55.5241 95.8297 55.3293 96.1682C55.1345 96.5068 54.8625 96.7946 54.5355 97.0083L47.7374 100.929L45.5913 109.603C45.5984 109.762 45.5421 109.918 45.4348 110.035C45.3274 110.153 45.1778 110.223 45.0188 110.23C44.8598 110.237 44.7044 110.181 44.5869 110.073C44.4695 109.966 44.3995 109.816 44.3923 109.657L42.4321 103.98L38.2777 106.378C37.6781 106.738 37.1566 106.444 37.1566 105.731L37.1806 90.0362Z" fill="#91C8E4"/>
<g opacity="0.5">
<path d="M37.1806 90.0362C37.2018 89.6465 37.3144 89.267 37.5092 88.9287C37.7038 88.5903 37.9753 88.3022 38.3016 88.0879L54.5355 78.718C55.1351 78.3583 55.6566 78.6521 55.6566 79.3714V95.0599C55.6363 95.45 55.5241 95.8297 55.3293 96.1682C55.1345 96.5068 54.8625 96.7946 54.5355 97.0083L47.7374 100.929L45.5913 109.603C45.5984 109.762 45.5421 109.918 45.4348 110.035C45.3274 110.153 45.1778 110.223 45.0188 110.23C44.8598 110.237 44.7044 110.181 44.5869 110.073C44.4695 109.966 44.3995 109.816 44.3923 109.657L42.4321 103.98L38.2777 106.378C37.6781 106.738 37.1566 106.444 37.1566 105.731L37.1806 90.0362Z" fill="white"/>
</g>
<path d="M42.8517 88.8672C43.1763 88.6655 43.5332 88.5215 43.9068 88.4416C44.1576 88.3909 44.4172 88.4032 44.6622 88.4775C44.8592 88.5487 45.0234 88.6894 45.1238 88.8733C45.2309 89.0713 45.2943 89.29 45.3096 89.5147C45.3335 89.7904 45.3456 90.0901 45.3456 90.4139C45.3456 90.7377 45.3335 91.0494 45.3096 91.3491C45.2834 91.6433 45.2209 91.9334 45.1238 92.2123C45.0088 92.5381 44.8538 92.8482 44.6622 93.1355C44.4453 93.4629 44.1919 93.7646 43.9068 94.0347C43.5882 94.3383 43.2339 94.602 42.8517 94.8201C42.5234 95.021 42.1652 95.1688 41.7906 95.2577C41.5425 95.313 41.2842 95.3027 41.0413 95.2278C40.8442 95.1567 40.6801 95.016 40.5797 94.8321C40.4706 94.6345 40.4051 94.4158 40.3879 94.1906C40.3879 93.9148 40.3879 93.5912 40.3879 93.2914C40.3879 92.9917 40.3879 92.656 40.3879 92.3562C40.4165 92.0617 40.4809 91.7719 40.5797 91.4929C40.692 91.1662 40.8473 90.8557 41.0413 90.5698C41.2593 90.243 41.5104 89.9397 41.7906 89.6645C42.1106 89.3565 42.4669 89.0888 42.8517 88.8672ZM49.4461 85.4441C49.514 85.313 49.5943 85.1886 49.6858 85.0725C49.7867 84.9574 49.9063 84.8601 50.0394 84.7848L51.0346 84.1853C51.1173 84.1243 51.2207 84.0984 51.3224 84.1133C51.3944 84.1133 51.4304 84.1913 51.4304 84.2872C51.4345 84.3191 51.4345 84.3513 51.4304 84.3832L51.3823 84.5089L43.2173 99.9636C43.1494 100.093 43.0691 100.215 42.9776 100.329C42.878 100.446 42.7582 100.543 42.624 100.617L41.6347 101.217C41.5497 101.277 41.4446 101.303 41.341 101.288C41.269 101.288 41.2331 101.211 41.2331 101.115C41.2289 101.083 41.2289 101.051 41.2331 101.019L41.2811 100.893L49.4461 85.4441ZM43.727 92.1164C43.7351 92.0087 43.7351 91.9005 43.727 91.7928V90.8994C43.7356 90.7977 43.7356 90.6955 43.727 90.5937C43.7237 90.5097 43.7027 90.4274 43.6655 90.3519C43.6283 90.2766 43.5758 90.2098 43.5111 90.1561C43.3913 90.0722 43.1694 90.1561 42.8517 90.3059C42.6064 90.4295 42.3972 90.614 42.2439 90.8419C42.0907 91.0697 41.9985 91.3332 41.9764 91.6069C41.9677 91.7166 41.9677 91.8269 41.9764 91.9366C41.9764 92.0804 41.9764 92.2303 41.9764 92.3861C41.9764 92.542 41.9764 92.686 41.9764 92.8298C41.967 92.9295 41.967 93.0298 41.9764 93.1295C41.9764 93.2142 41.9959 93.2977 42.0334 93.3735C42.0707 93.4494 42.1252 93.5156 42.1922 93.5671C42.3122 93.6511 42.528 93.5971 42.8517 93.4173C43.1222 93.2815 43.3503 93.0742 43.5111 92.8177C43.6305 92.6013 43.7039 92.3626 43.727 92.1164ZM50.0036 90.5577C50.3307 90.3558 50.6894 90.21 51.0646 90.1261C51.3136 90.0754 51.5711 90.0878 51.8139 90.1621C52.011 90.2331 52.1752 90.3739 52.2755 90.5577C52.3847 90.7553 52.4501 90.9741 52.4674 91.1992C52.4674 91.475 52.4974 91.7986 52.4974 92.0985C52.4974 92.3982 52.4974 92.7339 52.4674 93.0337C52.4392 93.3282 52.3748 93.6181 52.2755 93.8969C52.1621 94.2251 52.007 94.5374 51.8139 94.8261C51.3548 95.5192 50.7387 96.0943 50.0155 96.5047C49.69 96.7068 49.3336 96.8547 48.9604 96.9422C48.7106 97.0007 48.4496 96.9903 48.2051 96.9122C48.0069 96.8432 47.842 96.7019 47.7434 96.5166C47.6356 96.3188 47.5722 96.1 47.5576 95.8752C47.5576 95.6055 47.5217 95.2757 47.5217 94.982C47.5217 94.6882 47.5217 94.3404 47.5576 94.0407C47.5835 93.7484 47.646 93.4603 47.7434 93.1835C47.8584 92.8559 48.0134 92.5437 48.2051 92.2543C48.4234 91.9261 48.6766 91.6226 48.9604 91.3491C49.2708 91.0344 49.6216 90.7623 50.0036 90.5398V90.5577ZM50.8787 93.7829C50.8869 93.6752 50.8869 93.567 50.8787 93.4593V92.572C50.8874 92.4703 50.8874 92.3681 50.8787 92.2662C50.8793 92.1816 50.86 92.0979 50.8225 92.0219C50.7851 91.9461 50.7305 91.8799 50.6629 91.8286C50.543 91.7447 50.3272 91.7928 50.0036 91.9786C49.734 92.1157 49.5063 92.3228 49.3441 92.578C49.2284 92.7918 49.1551 93.0258 49.1283 93.2674C49.1226 93.3753 49.1226 93.4834 49.1283 93.5912C49.1283 93.741 49.1283 93.8909 49.1283 94.0407C49.1283 94.1906 49.1283 94.3465 49.1283 94.4844C49.122 94.5842 49.122 94.6843 49.1283 94.7841C49.1315 94.8681 49.1525 94.9505 49.1896 95.0259C49.2268 95.1013 49.2795 95.1679 49.3441 95.2217C49.464 95.3056 49.6858 95.2577 50.0036 95.0719C50.2743 94.9364 50.5024 94.729 50.6629 94.4724C50.7865 94.2556 50.8603 94.0139 50.8787 93.765V93.7829Z" fill="#FAFAFA"/>
</svg>
