<svg width="53" height="53" viewBox="0 0 53 53" fill="none" xmlns="http://www.w3.org/2000/svg">
<g clip-path="url(#clip0_47_346)">
<path d="M26.5 19.875L22.4111 15.7861C22.9184 14.4818 23.1875 13.074 23.1875 11.5938C23.1875 5.18613 18.0014 0 11.5938 0C5.18613 0 0 5.18613 0 11.5938C0 18.0014 5.18613 23.1875 11.5938 23.1875C13.074 23.1875 14.4818 22.908 15.7861 22.4111L19.875 26.5L15.7861 30.5889C14.4818 30.0816 13.074 29.8125 11.5938 29.8125C5.18613 29.8125 0 34.9986 0 41.4062C0 47.8139 5.18613 53 11.5938 53C18.0014 53 23.1875 47.8139 23.1875 41.4062C23.1875 39.926 22.908 38.5182 22.4111 37.2139L51.675 7.95C52.41 7.21504 52.41 6.03496 51.675 5.3C48.7455 2.37051 44.0045 2.37051 41.075 5.3L26.5 19.875ZM28.8395 35.4645L41.075 47.7C44.0045 50.6295 48.7455 50.6295 51.675 47.7C52.41 46.965 52.41 45.785 51.675 45.05L35.4645 28.8395L28.8395 35.4645ZM6.625 11.5938C6.625 10.9412 6.75352 10.2951 7.00322 9.69229C7.25293 9.08946 7.61892 8.5417 8.08031 8.08031C8.5417 7.61892 9.08946 7.25293 9.69229 7.00322C10.2951 6.75352 10.9412 6.625 11.5938 6.625C12.2463 6.625 12.8924 6.75352 13.4952 7.00322C14.098 7.25293 14.6458 7.61892 15.1072 8.08031C15.5686 8.5417 15.9346 9.08946 16.1843 9.69229C16.434 10.2951 16.5625 10.9412 16.5625 11.5938C16.5625 12.2463 16.434 12.8924 16.1843 13.4952C15.9346 14.098 15.5686 14.6458 15.1072 15.1072C14.6458 15.5686 14.098 15.9346 13.4952 16.1843C12.8924 16.434 12.2463 16.5625 11.5938 16.5625C10.9412 16.5625 10.2951 16.434 9.69229 16.1843C9.08946 15.9346 8.5417 15.5686 8.08031 15.1072C7.61892 14.6458 7.25293 14.098 7.00322 13.4952C6.75352 12.8924 6.625 12.2463 6.625 11.5938ZM11.5938 36.4375C12.2463 36.4375 12.8924 36.566 13.4952 36.8157C14.098 37.0654 14.6458 37.4314 15.1072 37.8928C15.5686 38.3542 15.9346 38.902 16.1843 39.5048C16.434 40.1076 16.5625 40.7537 16.5625 41.4062C16.5625 42.0588 16.434 42.7049 16.1843 43.3077C15.9346 43.9105 15.5686 44.4583 15.1072 44.9197C14.6458 45.3811 14.098 45.7471 13.4952 45.9968C12.8924 46.2465 12.2463 46.375 11.5938 46.375C10.9412 46.375 10.2951 46.2465 9.69229 45.9968C9.08946 45.7471 8.5417 45.3811 8.08031 44.9197C7.61892 44.4583 7.25293 43.9105 7.00322 43.3077C6.75352 42.7049 6.625 42.0588 6.625 41.4062C6.625 40.7537 6.75352 40.1076 7.00322 39.5048C7.25293 38.902 7.61892 38.3542 8.08031 37.8928C8.5417 37.4314 9.08946 37.0654 9.69229 36.8157C10.2951 36.566 10.9412 36.4375 11.5938 36.4375Z" fill="#1E3050"/>
</g>
<defs>
<clipPath id="clip0_47_346">
<rect width="53" height="53" fill="white"/>
</clipPath>
</defs>
</svg>
