<svg width="1045" height="1045" viewBox="0 0 1045 1045" fill="none" xmlns="http://www.w3.org/2000/svg">
<path fill-rule="evenodd" clip-rule="evenodd" d="M497.5 0.657993C435.112 4.36699 383.08 15.657 329.113 37.195C277.38 57.841 230.595 85.897 185.975 123.031C169.951 136.368 136.381 169.935 123.057 185.945C85.4061 231.187 57.5521 277.814 36.7051 330.5C15.1421 384.994 3.90311 438.014 0.809113 499.833L-0.358887 523.167L0.811113 545.833C2.14711 571.72 3.97511 589.038 7.63711 610.5C23.3161 702.387 61.3081 784.637 121.958 858C134.165 872.765 171.285 910.1 185.5 921.911C268.468 990.842 362.866 1031 469 1042.53C476.975 1043.39 496.1 1044.37 511.5 1044.69L539.5 1045.27L556.5 1044.08C623.338 1039.4 683.584 1024.05 743.255 996.49C751.92 992.487 764.02 986.441 770.144 983.053L781.279 976.894L881.247 1003.51C936.229 1018.14 981.376 1029.96 981.572 1029.76C981.769 1029.56 976.035 981.275 968.831 922.452L955.733 815.5L963.753 803C1047.29 672.811 1068.06 508.047 1019.53 360.5C1003.72 312.437 984.805 273.597 956.954 232C865.972 96.117 717.549 11.039 554 1.01999C538.98 0.0999925 510.006 -0.0860075 497.5 0.657993ZM507.5 31.591C440.254 34.957 380.054 49.294 319.192 76.436C245.934 109.107 178.664 163.467 128.864 230.237C51.9771 333.324 18.8121 463.488 37.0711 590.5C44.3141 640.884 62.3361 699.795 82.3451 738.494C103.076 778.587 133.259 812.806 164.005 831.072C184.156 843.044 211.107 850.391 239.5 851.655L252.5 852.234L264 850.614C289.645 847.003 313.29 838.186 333.5 824.698C377.717 795.189 402.317 756.502 407.068 709L408.218 697.5L407.534 685C406.561 667.243 403.92 653.159 397.69 632.5C392.417 615.018 389.718 607.15 369.63 550.713C344.463 480.006 331.775 429.813 325.339 375.5L323.562 360.5L323.531 327L323.5 293.5L324.8 283C331.004 232.874 345.421 187.188 367.086 149C375.999 133.291 382.701 124.388 395.993 110.602C435.56 69.563 486.97 47.356 555.024 41.907C572.196 40.532 602.908 41.256 621.408 43.472C628.507 44.323 634.48 44.853 634.682 44.652C635.964 43.37 592.242 35.738 571.168 33.566C555.985 32 521.001 30.915 507.5 31.591ZM680.5 77.038C635.546 84.041 601.539 115.827 592.59 159.208L591 166.916L591.013 180.208L591.026 193.5L592.91 202.627C597.167 223.254 605.502 237.497 624.483 256.582L636.5 268.664L660 287.076C691.754 311.954 701.05 320.037 724.857 343.466C755.886 374.004 773.977 395.21 791.427 421.5C807.56 445.806 816.692 463.907 827.324 492.656C840.3 527.742 848.008 563.356 851.099 602.5L852.283 617.5L851.676 639.5C849.221 728.566 816.647 808.955 755.342 877.241C733.119 901.994 715.986 915.574 685.5 932.598C633.281 961.759 573.19 980.769 513 987.171C505.577 987.96 489.331 988.479 473 988.448L445.5 988.396L430.5 986.637C365.131 978.972 303.599 956.732 244.192 919.298C236.872 914.685 227.713 908.65 223.839 905.885C213.791 898.716 216.205 901.412 227.736 910.239C277.971 948.691 342.757 980.191 406 996.911C439.57 1005.79 467.055 1010.05 504.277 1012.15L525.053 1013.32L546.777 1012.15C593.267 1009.63 632.906 1002.06 675.882 987.495C705.448 977.476 738.128 963.071 761.846 949.603C765.336 947.622 768.739 946 769.408 946C770.076 946 810.369 956.589 858.947 969.531C907.525 982.473 947.361 992.936 947.471 992.781C947.581 992.627 942.391 949.75 935.938 897.5L924.205 802.5L932.059 790.352C995.109 692.828 1021.67 579.873 1008.45 465.5C999.657 389.494 973.033 316.506 930.651 252.229C900.253 206.127 855.509 158.907 810.524 125.454C779.621 102.473 748.093 86.022 722.201 79.366L712.5 76.873L699.5 76.488C692.35 76.277 683.8 76.524 680.5 77.038ZM0.415113 523C0.415113 533.175 0.564113 537.337 0.745113 532.25C0.927113 527.163 0.927113 518.837 0.745113 513.75C0.564113 508.663 0.415113 512.825 0.415113 523Z" fill="#FBFBFB"/>
</svg>
