<svg width="248" height="202" viewBox="0 0 248 202" fill="none" xmlns="http://www.w3.org/2000/svg">
<path d="M133.5 83.5C130 81.4 126.4 79.3001 122.8 77.3001L110.5 70.2C102.9 65.8 94.2998 60.8 85.8998 56.2C82.0998 54.1 78.4998 53.8001 75.7998 55.3001C73.0998 56.8001 71.5998 60 71.3998 64.2C71.1998 70.7 71.1998 77.4 71.2998 84.2C71.2998 87.1 71.2998 90.1 71.2998 93L71.1998 102C71.1998 108.3 71.0998 114.9 71.2998 121.4C71.3998 125.9 72.8998 129.2 75.4998 130.8C76.6998 131.5 77.9998 131.9 79.4998 131.9C81.4998 131.9 83.5998 131.3 85.8998 130.2C86.3998 130 86.8998 129.7 87.2998 129.4L96.0998 124.3C108.7 117 121.3 109.8 133.9 102.4C135.5 101.5 136.8 100.5 137.9 99.4001C141.7 95.5 141.7 90.9001 137.8 87C136.5 85.4 134.8 84.3 133.5 83.5ZM129.1 93.6C116.5 100.9 103.9 108.2 91.3998 115.4L82.5998 120.5C82.2998 120.7 81.9998 120.8 81.6998 121C81.5998 121.1 81.4998 121.1 81.3998 121.1C81.3998 121 81.3998 121 81.3998 120.9C81.2998 114.6 81.2998 108.1 81.2998 101.6L81.3998 92.9001C81.3998 89.9001 81.3998 87 81.2998 83.6C81.1998 77.4 81.1998 71.1 81.3998 64.9C89.5998 69.4 98.0998 74.3 105.6 78.7L117.9 85.8001C121.4 87.8 125 89.8001 128.4 91.9001C128.7 92.1001 129.4 92.5 130 92.9001C129.7 93.3001 129.4 93.4 129.1 93.6Z" fill="black"/>
<path d="M206.7 0.200012H41.3999C18.9999 0.200012 0.899902 18.4 0.899902 40.7V145.3C0.899902 167.6 19.0999 185.8 41.3999 185.8H60.5999V196.8C60.5999 199.5 62.7999 201.8 65.5999 201.8C68.2999 201.8 70.5999 199.6 70.5999 196.8V185.8H177.6V196.8C177.6 199.5 179.8 201.8 182.6 201.8C185.3 201.8 187.6 199.6 187.6 196.8V185.8H206.8C229.1 185.8 247.3 167.6 247.3 145.3V40.7C247.1 18.4 229 0.200012 206.7 0.200012ZM237.2 145.3C237.2 162.1 223.5 175.9 206.6 175.9H41.3999C24.5999 175.9 10.7999 162.2 10.7999 145.3V40.7C10.7999 23.9 24.4999 10.1 41.3999 10.1H206.7C223.5 10.1 237.3 23.8 237.3 40.7V145.3H237.2Z" fill="black"/>
<path d="M170.8 27.3H41.4C34 27.3 28 33.3 28 40.7V145.3C28 152.7 34 158.7 41.4 158.7H170.8C178.2 158.7 184.2 152.7 184.2 145.3V40.7C184.2 33.3 178.2 27.3 170.8 27.3ZM174.2 145.3C174.2 147.2 172.6 148.8 170.7 148.8H41.4C39.5 148.8 37.9 147.2 37.9 145.3V40.7C37.9 38.8 39.5 37.2 41.4 37.2H170.8C172.7 37.2 174.3 38.8 174.3 40.7V145.3H174.2Z" fill="black"/>
<path d="M210.6 74.7C214.079 74.7 216.9 71.8794 216.9 68.4C216.9 64.9206 214.079 62.1 210.6 62.1C207.12 62.1 204.3 64.9206 204.3 68.4C204.3 71.8794 207.12 74.7 210.6 74.7Z" fill="black"/>
<path d="M210.6 46.6C214.079 46.6 216.9 43.7794 216.9 40.3C216.9 36.8206 214.079 34 210.6 34C207.12 34 204.3 36.8206 204.3 40.3C204.3 43.7794 207.12 46.6 210.6 46.6Z" fill="black"/>
</svg>
