<svg width="73" height="73" viewBox="0 0 73 73" fill="none" xmlns="http://www.w3.org/2000/svg">
<path d="M62.8772 0.998121L67.4397 5.56062L72.0022 10.1231C73.3424 11.4634 73.3424 13.6305 72.0022 14.9565C70.6619 16.2825 68.4948 16.2968 67.1688 14.9565L65.0301 12.8178L59.5836 18.2501L67.4254 26.0919C68.7657 27.4321 68.7657 29.5993 67.4254 30.9253C66.0852 32.2512 63.918 32.2655 62.592 30.9253L52.3264 20.6596L42.0608 10.4083C40.7205 9.06804 40.7205 6.90086 42.0608 5.57488C43.401 4.2489 45.5682 4.23464 46.8942 5.57488L54.736 13.4167L60.1825 7.98445L58.0295 5.84578C56.6893 4.50554 56.6893 2.33836 58.0295 1.01238C59.3698 -0.313598 61.5369 -0.327855 62.8629 1.01238L62.8772 0.998121ZM29.9844 22.1995L38.6959 13.488C38.7387 13.5307 38.7815 13.5878 38.8385 13.6305L41.1198 15.9118L49.1041 23.8962L57.0885 31.8805L59.3698 34.1618C59.4125 34.2046 59.4553 34.2473 59.5123 34.3044L32.2799 61.5368C30.7828 63.0339 28.7582 63.8751 26.6338 63.8751H13.9586L5.84593 72.002C4.5057 73.3423 2.33851 73.3423 1.01253 72.002C-0.313445 70.6618 -0.327703 68.4946 1.01253 67.1686L9.13948 59.0417V46.3807C9.13948 44.2563 9.9807 42.2317 11.4778 40.7346L17.6514 34.561L25.7784 42.688C26.6623 43.5719 28.1166 43.5719 29.0006 42.688C29.8846 41.804 29.8846 40.3497 29.0006 39.4657L20.8737 31.3387L26.7764 25.436L34.9034 33.563C35.7873 34.4469 37.2416 34.4469 38.1256 33.563C39.0096 32.679 39.0096 31.2247 38.1256 30.3407L29.9987 22.2137L29.9844 22.1995Z" fill="#1E3050"/>
</svg>
