<svg width="53" height="53" viewBox="0 0 53 53" fill="none" xmlns="http://www.w3.org/2000/svg">
<path d="M35.4657 0.970492C34.1717 -0.323497 32.0702 -0.323497 30.7762 0.970492C29.4822 2.26448 29.4822 4.36592 30.7762 5.65991L31.7493 6.63299L2.90889 35.4631C1.04554 37.3264 0 39.8523 0 42.492V43.0614C0 48.5479 4.45132 52.9992 9.93784 52.9992H10.5072C13.1469 52.9992 15.6728 51.9537 17.5361 50.0903L46.3766 21.2499L47.3496 22.223C48.6436 23.517 50.7451 23.517 52.0391 22.223C53.3331 20.929 53.3331 18.8275 52.0391 17.5336L48.7265 14.2209L38.7886 4.2831L35.476 0.970492H35.4657ZM21.2525 26.4983L36.4387 11.3121L41.6872 16.5605L31.7493 26.4983H21.2525Z" fill="#1E3050"/>
</svg>
