<svg width="272" height="212" viewBox="0 0 272 212" fill="none" xmlns="http://www.w3.org/2000/svg">
<path d="M267.193 41.5785H266.951C262.293 41.6082 261.571 37.5622 261.49 35.6837V6.30347C261.49 3.16697 258.948 0.625473 255.82 0.625473H171.819C150.743 0.625473 142.881 8.43698 140.93 10.8892L140.395 11.633L140.39 11.6457L138.729 13.9237C136.497 16.988 134.551 15.6832 133.616 14.6802L130.437 10.715L128.864 8.81947C126.221 6.04422 119.332 0.625473 105.676 0.625473H16.184C13.0475 0.625473 10.506 3.16697 10.506 6.30347V35.3097C10.506 40.3885 7.7478 41.4085 6.0563 41.5785H4.7983C3.4213 41.6635 0.216797 42.4625 0.216797 48.3572V186.605C0.216797 189.997 2.96655 192.742 6.35805 192.742H88.0345C114.091 192.742 125.447 202.568 128.852 206.338L130.794 208.744C130.794 208.744 136.009 214.638 141.5 208.744L142.639 207.409L142.656 207.401L144.109 205.701C144.152 205.65 144.5 205.259 145.006 204.74C149.354 200.511 160.221 192.742 181.471 192.742H265.642C269.038 192.742 271.783 189.997 271.783 186.605V47.0185C271.783 42.0205 268.167 41.604 267.193 41.5785ZM248.842 164.913C248.842 167.638 246.568 169.835 243.738 169.835H174.484C149.838 169.835 140.892 180.97 140.892 180.97L139.757 182.491L139.226 183.227C136.876 186.418 133.416 183.252 133.399 183.235L131.805 181.242C130.624 179.822 121.571 169.831 99.6625 169.831H28.2625C25.4448 169.831 23.1668 167.629 23.1668 164.909V17.5957C23.1668 14.8757 25.4448 12.6742 28.2625 12.6742H83.6953C124.929 12.6742 128.835 36.096 129.102 42.9002V145.351C129.102 152.797 132.651 154.195 134.653 154.399H137.632C139.672 154.195 142.915 152.984 142.915 147.174V41.5785H142.881C143.187 33.0572 146.51 12.67 171.309 12.67H243.738C246.568 12.67 248.842 14.8715 248.842 17.5915V164.913Z" fill="#241F20"/>
</svg>
