<svg width="122" height="163" viewBox="0 0 122 163" fill="none" xmlns="http://www.w3.org/2000/svg">
<path d="M108.847 47.8471C112.818 43.8758 112.818 37.4263 108.847 33.455C104.875 29.4836 98.4258 29.4836 94.4544 33.455L60.9997 66.9414L27.5133 33.4867C23.5419 29.5154 17.0924 29.5154 13.1211 33.4867C9.14974 37.4581 9.14974 43.9076 13.1211 47.8789L46.6076 81.3336L13.1529 114.82C9.18151 118.791 9.18151 125.241 13.1529 129.212C17.1242 133.184 23.5737 133.184 27.5451 129.212L60.9997 95.7258L94.4862 129.18C98.4576 133.152 104.907 133.152 108.878 129.18C112.85 125.209 112.85 118.76 108.878 114.788L75.3919 81.3336L108.847 47.8471Z" fill="#1E3050"/>
</svg>
